<?xml version="1.0" encoding="UTF-8"?>
<!DOCTYPE svg PUBLIC "-//W3C//DTD SVG 1.1//EN" "http://www.w3.org/Graphics/SVG/1.1/DTD/svg11.dtd">
<svg xmlns="http://www.w3.org/2000/svg" version="1.1" width="99px" height="99px" style="shape-rendering:geometricPrecision; text-rendering:geometricPrecision; image-rendering:optimizeQuality; fill-rule:evenodd; clip-rule:evenodd" xmlns:xlink="http://www.w3.org/1999/xlink">
<g><path style="opacity:0.936" fill="#000000" d="M 98.5,18.5 C 98.5,19.5 98.5,20.5 98.5,21.5C 91.6104,30.254 84.9438,39.254 78.5,48.5C 84.8358,58.1533 91.5025,67.4867 98.5,76.5C 98.5,77.8333 98.5,79.1667 98.5,80.5C 91.1591,80.6663 83.8258,80.4997 76.5,80C 71.7036,72.2391 66.5369,64.7391 61,57.5C 54.7018,75.0746 42.2018,82.5746 23.5,80C 11.8237,76.8183 3.82368,69.6516 -0.5,58.5C -0.5,51.8333 -0.5,45.1667 -0.5,38.5C 9.62875,18.6157 25.2954,12.7824 46.5,21C 53.9165,25.7458 59.0832,32.2458 62,40.5C 66.7104,33.5789 71.5438,26.7456 76.5,20C 83.9123,19.799 91.2456,19.299 98.5,18.5 Z M 29.5,35.5 C 35.1815,35.5851 39.0148,38.2518 41,43.5C 43.9286,56.8959 38.762,62.7292 25.5,61C 22.6193,59.7494 20.786,57.5827 20,54.5C 19.1902,49.7426 19.5236,45.0759 21,40.5C 23.3978,37.8916 26.2312,36.2249 29.5,35.5 Z"/></g>
</svg>
