<?xml version="1.0" encoding="UTF-8"?>
<!DOCTYPE svg PUBLIC "-//W3C//DTD SVG 1.1//EN" "http://www.w3.org/Graphics/SVG/1.1/DTD/svg11.dtd">
<svg xmlns="http://www.w3.org/2000/svg" version="1.1" width="1000px" height="300px" style="shape-rendering:geometricPrecision; text-rendering:geometricPrecision; image-rendering:optimizeQuality; fill-rule:evenodd; clip-rule:evenodd" xmlns:xlink="http://www.w3.org/1999/xlink">
<g><path style="opacity:0.998" fill="#050505" d="M 148.5,64.5 C 190.058,61.02 220.224,77.6867 239,114.5C 251.481,148.483 246.481,179.483 224,207.5C 196.903,233.481 165.403,240.647 129.5,229C 101.598,217.428 84.0984,196.928 77,167.5C 70.2551,127.514 83.7551,96.6806 117.5,75C 127.446,69.963 137.78,66.463 148.5,64.5 Z M 155.5,112.5 C 176.387,111.223 188.554,120.89 192,141.5C 194.819,157.381 190.319,170.548 178.5,181C 166.51,186.95 154.51,186.95 142.5,181C 129.767,168.713 125.6,153.88 130,136.5C 133.574,123.088 142.074,115.088 155.5,112.5 Z"/></g>
<g><path style="opacity:0.996" fill="#050505" d="M 362.5,67.5 C 382.178,67.167 401.845,67.5004 421.5,68.5C 402.446,94.2211 383.779,120.221 365.5,146.5C 385.695,174.862 405.695,203.362 425.5,232C 404.833,232.667 384.167,232.667 363.5,232C 347.628,209.092 332.128,185.925 317,162.5C 316.333,153.167 316.333,143.833 317,134.5C 332.177,112.138 347.343,89.8046 362.5,67.5 Z"/></g>
<g><path style="opacity:0.998" fill="#070707" d="M 430.5,67.5 C 477.167,67.5 523.833,67.5 570.5,67.5C 570.5,81.1667 570.5,94.8333 570.5,108.5C 555.833,108.5 541.167,108.5 526.5,108.5C 526.5,149.833 526.5,191.167 526.5,232.5C 508.833,232.5 491.167,232.5 473.5,232.5C 473.5,191.167 473.5,149.833 473.5,108.5C 459.167,108.5 444.833,108.5 430.5,108.5C 430.5,94.8333 430.5,81.1667 430.5,67.5 Z"/></g>
<g><path style="opacity:0.997" fill="#040404" d="M 632.5,67.5 C 652.833,67.5 673.167,67.5 693.5,67.5C 713.002,122.506 733.002,177.34 753.5,232C 734.836,232.5 716.17,232.667 697.5,232.5C 695.334,224.169 692.667,216.002 689.5,208C 671.5,207.333 653.5,207.333 635.5,208C 632.539,215.716 629.872,223.549 627.5,231.5C 609.167,232.833 590.833,232.833 572.5,231.5C 592.516,176.808 612.516,122.141 632.5,67.5 Z M 661.5,125.5 C 662.167,125.5 662.833,125.5 663.5,125.5C 667.637,139.243 671.97,152.91 676.5,166.5C 672.217,167.827 667.551,168.493 662.5,168.5C 657.449,168.493 652.783,167.827 648.5,166.5C 653.03,152.91 657.363,139.243 661.5,125.5 Z"/></g>
<g><path style="opacity:0.997" fill="#030303" d="M 869.5,149.5 C 869.369,150.376 869.702,151.043 870.5,151.5C 871.5,123.841 871.833,96.1747 871.5,68.5C 888.48,83.8112 905.48,99.1445 922.5,114.5C 923.5,153.828 923.833,193.161 923.5,232.5C 905.83,232.667 888.164,232.5 870.5,232C 852.44,205.367 834.773,178.533 817.5,151.5C 817.217,150.711 816.717,150.044 816,149.5C 815.5,177.165 815.333,204.831 815.5,232.5C 798.167,232.5 780.833,232.5 763.5,232.5C 763.5,177.5 763.5,122.5 763.5,67.5C 781.17,67.3334 798.836,67.5001 816.5,68C 834.39,95.0495 852.056,122.216 869.5,149.5 Z"/></g>
<g><path style="opacity:0.943" fill="#0e0e0e" d="M 907.5,68.5 C 912.64,67.5119 917.974,67.1786 923.5,67.5C 923.826,71.8839 923.492,76.2172 922.5,80.5C 917.481,76.4764 912.481,72.4764 907.5,68.5 Z"/></g>
<g><path style="opacity:0.478" fill="#676767" d="M 871.5,68.5 C 871.833,96.1747 871.5,123.841 870.5,151.5C 869.702,151.043 869.369,150.376 869.5,149.5C 870.158,121.931 870.825,94.9307 871.5,68.5 Z"/></g>
<g><path style="opacity:0.008" fill="#bebebe" d="M 663.5,125.5 C 662.833,125.5 662.167,125.5 661.5,125.5C 662.167,122.833 662.833,122.833 663.5,125.5 Z"/></g>
<g><path style="opacity:0.235" fill="#a2a2a2" d="M 817.5,151.5 C 816.833,178.5 816.167,205.5 815.5,232.5C 815.333,204.831 815.5,177.165 816,149.5C 816.717,150.044 817.217,150.711 817.5,151.5 Z"/></g>
<g><path style="opacity:0.741" fill="#303030" d="M 648.5,166.5 C 652.783,167.827 657.449,168.493 662.5,168.5C 667.551,168.493 672.217,167.827 676.5,166.5C 677.404,167.209 677.737,168.209 677.5,169.5C 667.5,169.5 657.5,169.5 647.5,169.5C 647.263,168.209 647.596,167.209 648.5,166.5 Z"/></g>
</svg>
