<?xml version="1.0" encoding="UTF-8"?>
<!DOCTYPE svg PUBLIC "-//W3C//DTD SVG 1.1//EN" "http://www.w3.org/Graphics/SVG/1.1/DTD/svg11.dtd">
<svg xmlns="http://www.w3.org/2000/svg" version="1.1" width="99px" height="24px" style="shape-rendering:geometricPrecision; text-rendering:geometricPrecision; image-rendering:optimizeQuality; fill-rule:evenodd; clip-rule:evenodd" xmlns:xlink="http://www.w3.org/1999/xlink">
<g><path style="opacity:0.998" fill="#191919" d="M 19.5,4.5 C 19.427,6.02694 20.0937,7.02694 21.5,7.5C 23.3627,18.4688 18.6961,22.9688 7.5,21C 6.42138,20.044 5.25471,19.2106 4,18.5C 3.50115,14.5138 3.33449,10.5138 3.5,6.5C 4.83333,5.83333 5.83333,4.83333 6.5,3.5C 8.11747,2.02769 10.1175,1.36103 12.5,1.5C 15.5005,1.17161 17.8339,2.17161 19.5,4.5 Z M 11.5,7.5 C 16.5175,9.86715 16.6842,12.5338 12,15.5C 8.87823,12.9848 8.71157,10.3182 11.5,7.5 Z"/></g>
<g><path style="opacity:0.941" fill="#191919" d="M 36.5,1.5 C 36.5,2.16667 36.5,2.83333 36.5,3.5C 34.86,6.14921 33.1933,8.81588 31.5,11.5C 31.8627,12.1835 32.1961,12.8501 32.5,13.5C 32.427,15.0269 33.0937,16.0269 34.5,16.5C 34.427,18.0269 35.0937,19.0269 36.5,19.5C 37.2891,19.7828 37.9558,20.2828 38.5,21C 30.3196,22.3313 25.6529,18.8313 24.5,10.5C 25.9063,10.0269 26.573,9.02694 26.5,7.5C 27.9063,7.02694 28.573,6.02694 28.5,4.5C 30.3857,1.90058 33.0524,0.900582 36.5,1.5 Z"/></g>
<g><path style="opacity:0.923" fill="#0f0f0f" d="M 38.5,1.5 C 43.5,1.5 48.5,1.5 53.5,1.5C 53.5,3.16667 53.5,4.83333 53.5,6.5C 51.8333,6.5 50.1667,6.5 48.5,6.5C 48.5,11.5 48.5,16.5 48.5,21.5C 46.5,21.5 44.5,21.5 42.5,21.5C 42.5,16.8333 42.5,12.1667 42.5,7.5C 41.1667,7.5 39.8333,7.5 38.5,7.5C 38.5,5.5 38.5,3.5 38.5,1.5 Z"/></g>
<g><path style="opacity:0.95" fill="#151515" d="M 74.5,19.5 C 74.5,20.1667 74.5,20.8333 74.5,21.5C 70.045,20.8581 65.7117,19.8581 61.5,18.5C 61.5,19.5 61.5,20.5 61.5,21.5C 58.7531,21.8134 56.0865,21.48 53.5,20.5C 56.2255,14.6575 58.5589,8.65747 60.5,2.5C 63.3719,1.21748 66.2053,1.21748 69,2.5C 71.34,8.01943 73.1733,13.6861 74.5,19.5 Z M 65.5,11.5 C 65.2893,13.4241 64.6226,13.7574 63.5,12.5C 64.1667,12.1667 64.8333,11.8333 65.5,11.5 Z"/></g>
<g><path style="opacity:0.17" fill="#9c9c9c" d="M 76.5,1.5 C 76.5,8.16667 76.5,14.8333 76.5,21.5C 75.8333,21.5 75.1667,21.5 74.5,21.5C 74.5,20.8333 74.5,20.1667 74.5,19.5C 75.1667,13.5 75.8333,7.5 76.5,1.5 Z"/></g>
<g><path style="opacity:0.96" fill="#0f0f0f" d="M 76.5,1.5 C 78.924,1.19244 81.2573,1.52577 83.5,2.5C 84.5005,4.81324 85.8338,6.81324 87.5,8.5C 87.8333,9.83333 88.1667,9.83333 88.5,8.5C 88.2053,6.26465 88.5386,4.26465 89.5,2.5C 91.1477,3.80978 92.8144,5.14311 94.5,6.5C 95.4941,11.456 95.8275,16.456 95.5,21.5C 92.7531,21.8134 90.0865,21.48 87.5,20.5C 86,18.1667 84.5,15.8333 83,13.5C 82.5026,16.146 82.3359,18.8127 82.5,21.5C 80.5,21.5 78.5,21.5 76.5,21.5C 76.5,14.8333 76.5,8.16667 76.5,1.5 Z"/></g>
<g><path style="opacity:0.647" fill="#1e1e1e" d="M 92.5,1.5 C 93.675,1.28099 94.675,1.61432 95.5,2.5C 93.9483,3.79789 92.9483,3.46455 92.5,1.5 Z"/></g>
<g><path style="opacity:0.312" fill="#5e5e5e" d="M 36.5,1.5 C 37.1667,1.5 37.8333,1.5 38.5,1.5C 38.5,3.5 38.5,5.5 38.5,7.5C 37.8333,6.16667 37.1667,4.83333 36.5,3.5C 36.5,2.83333 36.5,2.16667 36.5,1.5 Z"/></g>
<g><path style="opacity:0.014" fill="#6b6b6b" d="M 89.5,2.5 C 88.5386,4.26465 88.2053,6.26465 88.5,8.5C 88.1667,8.5 87.8333,8.5 87.5,8.5C 87.1924,6.07603 87.5258,3.74269 88.5,1.5C 89.1067,1.62358 89.44,1.95691 89.5,2.5 Z"/></g>
<g><path style="opacity:0.447" fill="#6f6f6f" d="M 6.5,3.5 C 5.83333,4.83333 4.83333,5.83333 3.5,6.5C 3.5,4.5 4.5,3.5 6.5,3.5 Z"/></g>
<g><path style="opacity:0.275" fill="#888888" d="M 19.5,4.5 C 20.9063,4.97306 21.573,5.97306 21.5,7.5C 20.0937,7.02694 19.427,6.02694 19.5,4.5 Z"/></g>
<g><path style="opacity:0.404" fill="#7e7e7e" d="M 28.5,4.5 C 28.573,6.02694 27.9063,7.02694 26.5,7.5C 26.427,5.97306 27.0937,4.97306 28.5,4.5 Z"/></g>
<g><path style="opacity:0.518" fill="#424242" d="M 53.5,1.5 C 54.4614,3.26465 54.7947,5.26465 54.5,7.5C 52.8333,7.5 51.1667,7.5 49.5,7.5C 49.8195,12.3633 49.4861,17.03 48.5,21.5C 48.5,16.5 48.5,11.5 48.5,6.5C 50.1667,6.5 51.8333,6.5 53.5,6.5C 53.5,4.83333 53.5,3.16667 53.5,1.5 Z"/></g>
<g><path style="opacity:0.729" fill="#676767" d="M 26.5,7.5 C 26.573,9.02694 25.9063,10.0269 24.5,10.5C 24.427,8.97306 25.0937,7.97306 26.5,7.5 Z"/></g>
<g><path style="opacity:0.012" fill="#858585" d="M 65.5,11.5 C 64.8333,11.8333 64.1667,12.1667 63.5,12.5C 63.281,11.325 63.6143,10.325 64.5,9.5C 65.2975,9.95689 65.6309,10.6236 65.5,11.5 Z"/></g>
<g><path style="opacity:0.439" fill="#7e7e7e" d="M 32.5,13.5 C 33.9063,13.9731 34.573,14.9731 34.5,16.5C 33.0937,16.0269 32.427,15.0269 32.5,13.5 Z"/></g>
<g><path style="opacity:0.51" fill="#696969" d="M 34.5,16.5 C 35.9063,16.9731 36.573,17.9731 36.5,19.5C 35.0937,19.0269 34.427,18.0269 34.5,16.5 Z"/></g>
</svg>
