<?xml version="1.0" encoding="UTF-8"?>
<!DOCTYPE svg PUBLIC "-//W3C//DTD SVG 1.1//EN" "http://www.w3.org/Graphics/SVG/1.1/DTD/svg11.dtd">
<svg xmlns="http://www.w3.org/2000/svg" version="1.1" width="99px" height="24px" style="shape-rendering:geometricPrecision; text-rendering:geometricPrecision; image-rendering:optimizeQuality; fill-rule:evenodd; clip-rule:evenodd" xmlns:xlink="http://www.w3.org/1999/xlink">
<g><path style="opacity:0.327" fill="#eef6f9" d="M 5.5,-0.5 C 9.5,-0.5 13.5,-0.5 17.5,-0.5C 19.168,1.34004 20.668,3.34004 22,5.5C 23.7524,3.64908 25.2524,1.64908 26.5,-0.5C 35.8333,-0.5 45.1667,-0.5 54.5,-0.5C 55.5552,2.07283 55.7218,4.73949 55,7.5C 53.6439,8.38017 52.1439,8.71351 50.5,8.5C 50.7787,13.5947 50.4454,18.5947 49.5,23.5C 46.5,23.5 43.5,23.5 40.5,23.5C 39.5546,18.5947 39.2213,13.5947 39.5,8.5C 36.7615,9.03522 34.9282,8.03522 34,5.5C 32.8783,7.62377 31.3783,9.4571 29.5,11C 31.8795,14.2576 34.3795,17.4242 37,20.5C 37.4696,21.5768 37.3029,22.5768 36.5,23.5C 32.8333,23.5 29.1667,23.5 25.5,23.5C 24.5974,21.3635 23.4307,19.3635 22,17.5C 20.668,19.66 19.168,21.66 17.5,23.5C 13.1667,23.5 8.83333,23.5 4.5,23.5C 2.80363,21.4752 1.13696,19.4752 -0.5,17.5C -0.5,13.5 -0.5,9.5 -0.5,5.5C 1.16667,3.16667 3.16667,1.16667 5.5,-0.5 Z M 8.5,9.5 C 10.6648,9.11589 12.3315,9.78256 13.5,11.5C 12.3315,13.2174 10.6648,13.8841 8.5,13.5C 8.5,12.1667 8.5,10.8333 8.5,9.5 Z"/></g>
<g><path style="opacity:1" fill="#5ea9c3" d="M 7.5,0.5 C 14.2706,-0.301846 19.1039,2.36482 22,8.5C 23.5,6.33333 25,4.16667 26.5,2C 29.1667,1.33333 31.8333,1.33333 34.5,2C 31.9737,5.02604 29.6404,8.1927 27.5,11.5C 29.8333,14.8333 32.1667,18.1667 34.5,21.5C 31.8333,22.8333 29.1667,22.8333 26.5,21.5C 25.1891,18.8646 23.5224,16.5313 21.5,14.5C 16.2002,23.6893 9.7002,24.6893 2,17.5C -1.3538,10.0309 0.479537,4.36421 7.5,0.5 Z M 8.5,9.5 C 8.5,10.8333 8.5,12.1667 8.5,13.5C 10.6648,13.8841 12.3315,13.2174 13.5,11.5C 12.3315,9.78256 10.6648,9.11589 8.5,9.5 Z"/></g>
<g><path style="opacity:1" fill="#5ca9c3" d="M 35.5,1.5 C 41.5,1.5 47.5,1.5 53.5,1.5C 53.5,3.16667 53.5,4.83333 53.5,6.5C 51.5,6.5 49.5,6.5 47.5,6.5C 47.5,11.8333 47.5,17.1667 47.5,22.5C 45.5,22.5 43.5,22.5 41.5,22.5C 41.5,17.1667 41.5,11.8333 41.5,6.5C 39.5,6.5 37.5,6.5 35.5,6.5C 35.5,4.83333 35.5,3.16667 35.5,1.5 Z"/></g>
<g><path style="opacity:1" fill="#7ab8ce" d="M 85.5,2.5 C 83.5,2.5 81.5,2.5 79.5,2.5C 79.5,8.83333 79.5,15.1667 79.5,21.5C 81.1667,21.5 82.8333,21.5 84.5,21.5C 84.1826,18.4281 84.5159,15.4281 85.5,12.5C 86.1067,12.6236 86.44,12.9569 86.5,13.5C 85.5233,16.2869 85.19,19.2869 85.5,22.5C 83.1667,22.5 80.8333,22.5 78.5,22.5C 78.5,15.5 78.5,8.5 78.5,1.5C 81.0593,1.19845 83.3926,1.53178 85.5,2.5 Z"/></g>
<g><path style="opacity:1" fill="#5aa7c2" d="M 85.5,2.5 C 87.7281,5.272 89.7281,8.272 91.5,11.5C 92.3214,8.55349 92.8214,5.55349 93,2.5C 94.7742,3.96501 96.6075,5.29834 98.5,6.5C 98.5,11.8333 98.5,17.1667 98.5,22.5C 96.076,22.8076 93.7427,22.4742 91.5,21.5C 89.8224,18.8053 88.1558,16.1386 86.5,13.5C 86.44,12.9569 86.1067,12.6236 85.5,12.5C 84.5159,15.4281 84.1826,18.4281 84.5,21.5C 82.8333,21.5 81.1667,21.5 79.5,21.5C 79.5,15.1667 79.5,8.83333 79.5,2.5C 81.5,2.5 83.5,2.5 85.5,2.5 Z"/></g>
<g><path style="opacity:0.445" fill="#f4f9fb" d="M 60.5,-0.5 C 63.8333,-0.5 67.1667,-0.5 70.5,-0.5C 72.2264,4.50992 74.0597,9.50992 76,14.5C 76.2186,9.41761 76.7186,4.41761 77.5,-0.5C 80.5,-0.5 83.5,-0.5 86.5,-0.5C 87.4026,1.63647 88.5693,3.63647 90,5.5C 89.744,3.39766 89.9107,1.39766 90.5,-0.5C 91.5,-0.5 92.5,-0.5 93.5,-0.5C 94.5,2.16667 95.5,2.16667 96.5,-0.5C 97.1667,-0.5 97.8333,-0.5 98.5,-0.5C 98.5,1.83333 98.5,4.16667 98.5,6.5C 96.6075,5.29834 94.7742,3.96501 93,2.5C 92.8214,5.55349 92.3214,8.55349 91.5,11.5C 89.7281,8.272 87.7281,5.272 85.5,2.5C 83.3926,1.53178 81.0593,1.19845 78.5,1.5C 78.5,8.5 78.5,15.5 78.5,22.5C 80.8333,22.5 83.1667,22.5 85.5,22.5C 85.19,19.2869 85.5233,16.2869 86.5,13.5C 88.1558,16.1386 89.8224,18.8053 91.5,21.5C 93.7427,22.4742 96.076,22.8076 98.5,22.5C 98.5,22.8333 98.5,23.1667 98.5,23.5C 95.8333,23.5 93.1667,23.5 90.5,23.5C 88.7766,18.3952 87.4432,18.3952 86.5,23.5C 80.5,23.5 74.5,23.5 68.5,23.5C 67.3202,21.087 65.3202,20.087 62.5,20.5C 62.5,21.5 62.5,22.5 62.5,23.5C 59.1667,23.5 55.8333,23.5 52.5,23.5C 53.8791,15.3308 56.5457,7.3308 60.5,-0.5 Z"/></g>
<g><path style="opacity:1" fill="#61abc4" d="M 61.5,1.5 C 64.4475,1.22288 67.2809,1.55621 70,2.5C 72.679,9.03622 74.8457,15.7029 76.5,22.5C 74.1667,22.5 71.8333,22.5 69.5,22.5C 69.5,21.5 69.5,20.5 69.5,19.5C 66.8333,19.5 64.1667,19.5 61.5,19.5C 61.5,20.5 61.5,21.5 61.5,22.5C 59.1667,22.5 56.8333,22.5 54.5,22.5C 56.2382,15.2855 58.5715,8.28549 61.5,1.5 Z"/></g>
<g><path style="opacity:0.475" fill="#e6f1f5" d="M 9.5,6.5 C 14.0989,6.70595 15.9322,9.03929 15,13.5C 10.8287,17.7791 7.99541,16.9458 6.5,11C 6.55715,8.79108 7.55715,7.29108 9.5,6.5 Z M 8.5,9.5 C 8.5,10.8333 8.5,12.1667 8.5,13.5C 10.6648,13.8841 12.3315,13.2174 13.5,11.5C 12.3315,9.78256 10.6648,9.11589 8.5,9.5 Z"/></g>
<g><path style="opacity:1" fill="#ddedf2" d="M 64.5,9.5 C 66.1852,10.1837 67.1852,11.517 67.5,13.5C 66.1667,14.8333 64.8333,14.8333 63.5,13.5C 64.2458,12.2638 64.5792,10.9305 64.5,9.5 Z"/></g>
</svg>
