<?xml version="1.0" encoding="UTF-8"?>
<!DOCTYPE svg PUBLIC "-//W3C//DTD SVG 1.1//EN" "http://www.w3.org/Graphics/SVG/1.1/DTD/svg11.dtd">
<svg xmlns="http://www.w3.org/2000/svg" version="1.1" width="1000px" height="300px" style="shape-rendering:geometricPrecision; text-rendering:geometricPrecision; image-rendering:optimizeQuality; fill-rule:evenodd; clip-rule:evenodd" xmlns:xlink="http://www.w3.org/1999/xlink">
<g><path style="opacity:0.963" fill="#f8f9f8" d="M 75.5,268.5 C 24.392,232.713 4.55869,182.046 16,116.5C 24.7714,77.4982 45.938,47.9982 79.5,28C 79.1667,27.6667 78.8333,27.3333 78.5,27C 87.5507,23.0652 95.884,19.0652 103.5,15C 131.64,6.80201 160.14,5.30201 189,10.5C 232.844,20.7132 264.844,45.7132 285,85.5C 287.322,91.1548 289.655,96.8214 292,102.5C 293.447,109.221 294.78,115.887 296,122.5C 321.065,86.0504 345.899,49.217 370.5,12C 403.832,11.5 437.165,11.3333 470.5,11.5C 470.069,14.4492 468.902,17.1159 467,19.5C 436.238,61.1447 406.071,102.811 376.5,144.5C 404.272,183.736 431.772,223.07 459,262.5C 464.144,269.961 469.644,277.127 475.5,284C 475.167,284.333 474.833,284.667 474.5,285C 475.973,285.71 476.64,286.876 476.5,288.5C 441.494,288.833 406.494,288.5 371.5,287.5C 346.609,250.019 321.442,212.686 296,175.5C 294.135,190.762 289.302,204.929 281.5,218C 281.833,218.333 282.167,218.667 282.5,219C 278.202,223.097 275.035,227.931 273,233.5C 230.652,286.163 174.818,302.996 105.5,284C 98.4221,280.128 91.0888,276.795 83.5,274C 81.2093,271.53 78.5426,269.696 75.5,268.5 Z M 144.5,89.5 C 154.217,89.176 163.884,89.676 173.5,91C 182.463,93.9537 190.129,98.9537 196.5,106C 196.167,106.333 195.833,106.667 195.5,107C 198.212,109.143 200.212,111.81 201.5,115C 203.913,121.842 206.08,128.675 208,135.5C 208.667,144.5 208.667,153.5 208,162.5C 206.072,169.371 203.905,176.204 201.5,183C 198.632,186.7 195.965,190.533 193.5,194.5C 190.127,197.178 186.794,199.844 183.5,202.5C 164.412,210.635 145.412,210.468 126.5,202C 119.453,196.91 113.786,190.576 109.5,183C 109.833,182.667 110.167,182.333 110.5,182C 108.622,176.893 106.622,171.893 104.5,167C 103.081,153.812 103.248,140.645 105,127.5C 105.667,126.833 106.333,126.167 107,125.5C 111.95,105.378 124.45,93.3784 144.5,89.5 Z"/></g>
<g><path style="opacity:0.93" fill="#f8f9f8" d="M 476.5,63.5 C 525.167,63.5 573.833,63.5 622.5,63.5C 622.667,78.1705 622.5,92.8371 622,107.5C 607.245,108.491 592.412,108.824 577.5,108.5C 577.5,150.833 577.5,193.167 577.5,235.5C 558.833,235.5 540.167,235.5 521.5,235.5C 521.5,193.167 521.5,150.833 521.5,108.5C 506.5,108.5 491.5,108.5 476.5,108.5C 476.5,93.5 476.5,78.5 476.5,63.5 Z"/></g>
<g><path style="opacity:0.944" fill="#f8f9f8" d="M 683.5,63.5 C 707.36,69.3824 731.026,76.0491 754.5,83.5C 769.171,121.683 783.338,160.016 797,198.5C 797.494,200.134 797.66,201.801 797.5,203.5C 792.763,203.881 788.096,204.714 783.5,206C 771.559,210.089 759.392,213.589 747,216.5C 746.228,216.355 745.561,216.022 745,215.5C 744.749,213.567 744.249,211.734 743.5,210C 725.158,209.167 706.824,209.334 688.5,210.5C 685.86,217.722 683.527,225.055 681.5,232.5C 681.182,233.647 680.516,234.481 679.5,235C 660.503,235.5 641.503,235.667 622.5,235.5C 641.683,181.79 661.183,128.123 681,74.5C 682.562,70.9855 683.395,67.3189 683.5,63.5 Z M 715.5,124.5 C 720.447,138.224 725.114,152.224 729.5,166.5C 720.518,167.665 711.518,167.832 702.5,167C 707.605,153.064 711.939,138.898 715.5,124.5 Z"/></g>
<g><path style="opacity:0.9" fill="#f8f9f8" d="M 818.5,101.5 C 850.82,110.165 883.153,118.998 915.5,128C 919.667,134.167 923.833,140.333 928,146.5C 928.499,141.845 928.666,137.179 928.5,132.5C 941.089,135.23 953.423,138.73 965.5,143C 971.453,144.491 977.453,145.657 983.5,146.5C 983.5,148.167 983.5,149.833 983.5,151.5C 976.479,152.838 969.479,154.338 962.5,156C 938.799,162.676 915.132,169.509 891.5,176.5C 885.782,169.606 880.616,162.272 876,154.5C 875.667,162.833 875.333,171.167 875,179.5C 874.692,180.308 874.192,180.975 873.5,181.5C 855.416,186.188 837.416,191.188 819.5,196.5C 818.5,164.84 818.167,133.174 818.5,101.5 Z"/></g>
<g><path style="opacity:0.004" fill="#f8f9f8" d="M 75.5,268.5 C 74.8333,269.167 74.8333,269.167 75.5,268.5 Z"/></g>
</svg>
