<?xml version="1.0" encoding="UTF-8"?>
<!DOCTYPE svg PUBLIC "-//W3C//DTD SVG 1.1//EN" "http://www.w3.org/Graphics/SVG/1.1/DTD/svg11.dtd">
<svg xmlns="http://www.w3.org/2000/svg" version="1.1" width="1000px" height="300px" style="shape-rendering:geometricPrecision; text-rendering:geometricPrecision; image-rendering:optimizeQuality; fill-rule:evenodd; clip-rule:evenodd" xmlns:xlink="http://www.w3.org/1999/xlink">
<g><path style="opacity:0.997" fill="#000000" d="M 135.5,7.5 C 136.552,9.25605 138.219,9.92271 140.5,9.5C 144.182,9.6653 147.848,9.49863 151.5,9C 152.056,8.61742 152.389,8.11742 152.5,7.5C 155.833,7.5 159.167,7.5 162.5,7.5C 163.949,9.16441 165.949,9.99775 168.5,10C 171.696,10.8045 174.696,10.6378 177.5,9.5C 177.5,9.16667 177.5,8.83333 177.5,8.5C 178.167,8.5 178.833,8.5 179.5,8.5C 179.559,10.7224 180.725,11.7224 183,11.5C 184.376,11.3158 185.209,10.6491 185.5,9.5C 186.391,10.1098 187.391,10.4431 188.5,10.5C 188.414,11.4959 188.748,12.3292 189.5,13C 191.066,13.765 192.399,13.5983 193.5,12.5C 193.5,12.1667 193.5,11.8333 193.5,11.5C 194.167,11.5 194.833,11.5 195.5,11.5C 195.5,12.5 195.5,13.5 195.5,14.5C 197.099,14.7678 198.432,14.4345 199.5,13.5C 200.167,13.5 200.833,13.5 201.5,13.5C 201.5,14.5 201.5,15.5 201.5,16.5C 203.734,16.3801 205.901,16.7135 208,17.5C 209.03,17.1639 209.53,16.4972 209.5,15.5C 210.167,15.8333 210.833,16.1667 211.5,16.5C 211.5,17.5 211.5,18.5 211.5,19.5C 213.2,19.6261 214.7,20.2927 216,21.5C 216.765,21.4301 217.265,21.0967 217.5,20.5C 217.833,20.5 218.167,20.5 218.5,20.5C 218.5,21.5 218.5,22.5 218.5,23.5C 223.229,24.5425 227.563,26.5425 231.5,29.5C 232.107,29.3764 232.44,29.0431 232.5,28.5C 232.833,28.5 233.167,28.5 233.5,28.5C 233.693,31.5701 235.027,32.5701 237.5,31.5C 237.833,31.5 238.167,31.5 238.5,31.5C 238.468,33.6188 239.468,34.9522 241.5,35.5C 242.833,36.8333 244.167,38.1667 245.5,39.5C 250.788,44.1152 256.122,48.7819 261.5,53.5C 263.196,55.5248 264.863,57.5248 266.5,59.5C 267.026,61.2303 268.026,62.5637 269.5,63.5C 277.779,74.0129 283.779,85.6795 287.5,98.5C 289.796,103.982 291.463,109.649 292.5,115.5C 293.021,119.172 293.687,122.838 294.5,126.5C 295.522,126.145 296.189,125.478 296.5,124.5C 298.241,122.076 299.575,119.41 300.5,116.5C 301.778,116.218 302.778,115.551 303.5,114.5C 307.767,107.723 312.267,101.056 317,94.5C 318.009,92.9751 318.509,91.3084 318.5,89.5C 320.017,89.4894 321.184,88.8228 322,87.5C 324.693,82.6641 327.527,77.9974 330.5,73.5C 332.25,72.3406 333.25,70.674 333.5,68.5C 334.5,68.1667 335.167,67.5 335.5,66.5C 338.399,63.0484 341.066,59.3817 343.5,55.5C 344.401,54.7095 345.068,53.7095 345.5,52.5C 351.861,44.4394 357.195,35.7727 361.5,26.5C 364.297,26.0334 365.631,24.3667 365.5,21.5C 367.727,20.5994 368.727,18.9328 368.5,16.5C 370.929,15.7352 372.262,14.0685 372.5,11.5C 405.517,10.8405 438.184,11.5071 470.5,13.5C 467.103,14.5681 465.103,16.9014 464.5,20.5C 461.744,22.2001 459.577,24.5334 458,27.5C 456.991,29.0249 456.491,30.6916 456.5,32.5C 454.596,32.7376 453.262,33.7376 452.5,35.5C 451.659,36.9264 450.659,38.2597 449.5,39.5C 443.895,47.4555 438.228,55.4555 432.5,63.5C 432.5,64.1667 432.167,64.5 431.5,64.5C 430.599,65.2905 429.932,66.2905 429.5,67.5C 428.833,68.5 428.167,69.5 427.5,70.5C 426.026,71.4363 425.026,72.7697 424.5,74.5C 422.615,76.0532 421.615,78.0532 421.5,80.5C 419.983,80.5106 418.816,81.1772 418,82.5C 417.015,84.6412 415.848,86.6412 414.5,88.5C 413.026,89.4363 412.026,90.7697 411.5,92.5C 405.582,100.932 399.416,109.265 393,117.5C 391.991,119.025 391.491,120.692 391.5,122.5C 389.983,122.511 388.816,123.177 388,124.5C 384.054,130.779 379.721,136.779 375,142.5C 374.485,146.138 375.985,148.471 379.5,149.5C 379.5,149.833 379.5,150.167 379.5,150.5C 379.554,152.632 380.554,153.965 382.5,154.5C 383.167,154.5 383.5,154.833 383.5,155.5C 383.273,157.933 384.273,159.599 386.5,160.5C 386.78,163.72 388.447,165.72 391.5,166.5C 393.788,171.736 396.622,176.736 400,181.5C 400.816,182.823 401.983,183.489 403.5,183.5C 405.284,188.477 407.784,193.144 411,197.5C 417.092,205.367 422.925,213.367 428.5,221.5C 429.265,222.612 430.265,223.279 431.5,223.5C 433.222,229.559 436.555,234.559 441.5,238.5C 445.759,245.605 450.259,252.605 455,259.5C 456.307,261.192 457.807,262.525 459.5,263.5C 459.369,266.367 460.703,268.033 463.5,268.5C 463.273,270.933 464.273,272.599 466.5,273.5C 468.087,277.683 470.421,281.35 473.5,284.5C 473.5,285.833 473.5,287.167 473.5,288.5C 440.167,288.5 406.833,288.5 373.5,288.5C 369.428,281.36 365.095,274.36 360.5,267.5C 360.068,266.29 359.401,265.29 358.5,264.5C 356.068,261.435 353.901,258.101 352,254.5C 351.184,253.177 350.017,252.511 348.5,252.5C 348.741,249.966 347.741,248.3 345.5,247.5C 344.612,244.757 343.445,242.09 342,239.5C 341.184,238.177 340.017,237.511 338.5,237.5C 338.579,236.07 338.246,234.736 337.5,233.5C 336.162,231.725 334.829,230.059 333.5,228.5C 333.22,225.28 331.553,223.28 328.5,222.5C 328.741,219.966 327.741,218.3 325.5,217.5C 324.612,214.757 323.445,212.09 322,209.5C 321.184,208.177 320.017,207.511 318.5,207.5C 318.045,204.538 316.879,201.871 315,199.5C 314.184,198.177 313.017,197.511 311.5,197.5C 311.657,196.127 311.49,194.793 311,193.5C 309.25,191.296 307.417,189.296 305.5,187.5C 305.631,184.633 304.297,182.967 301.5,182.5C 301.769,180.571 301.269,178.905 300,177.5C 299.536,178.094 299.369,178.761 299.5,179.5C 298.094,179.027 297.427,178.027 297.5,176.5C 299.977,175.88 299.977,174.88 297.5,173.5C 295.948,172.202 294.948,172.535 294.5,174.5C 293.656,177.345 292.99,180.345 292.5,183.5C 291.593,185.657 290.927,187.99 290.5,190.5C 286.912,203.262 281.578,215.262 274.5,226.5C 273.599,227.29 272.932,228.29 272.5,229.5C 270.615,231.053 269.615,233.053 269.5,235.5C 267.548,236.785 265.882,238.451 264.5,240.5C 263.026,241.436 262.026,242.77 261.5,244.5C 258.064,248.057 254.397,251.391 250.5,254.5C 249.167,255.833 247.833,257.167 246.5,258.5C 245.167,259.167 244.167,260.167 243.5,261.5C 241.952,261.821 241.285,262.821 241.5,264.5C 241.167,264.5 240.833,264.5 240.5,264.5C 238.183,263.466 237.183,264.466 237.5,267.5C 236.833,267.5 236.167,267.5 235.5,267.5C 233.183,266.466 232.183,267.466 232.5,270.5C 231.833,270.5 231.167,270.5 230.5,270.5C 230.565,270.062 230.399,269.728 230,269.5C 227.966,270.862 225.799,271.862 223.5,272.5C 223.5,273.5 223.5,274.5 223.5,275.5C 223.167,275.5 222.833,275.5 222.5,275.5C 222.44,274.957 222.107,274.624 221.5,274.5C 220.614,275.325 220.281,276.325 220.5,277.5C 219.833,277.5 219.167,277.5 218.5,277.5C 218.44,276.957 218.107,276.624 217.5,276.5C 214.793,277.578 212.126,278.578 209.5,279.5C 209.5,280.5 209.5,281.5 209.5,282.5C 208.833,282.5 208.167,282.5 207.5,282.5C 206.791,281.596 205.791,281.263 204.5,281.5C 204.5,282.5 204.5,283.5 204.5,284.5C 203.833,284.5 203.167,284.5 202.5,284.5C 202.179,282.952 201.179,282.285 199.5,282.5C 199.5,283.5 199.5,284.5 199.5,285.5C 198.833,285.5 198.167,285.5 197.5,285.5C 196.791,284.596 195.791,284.263 194.5,284.5C 191.627,284.802 188.961,285.469 186.5,286.5C 186.5,287.167 186.5,287.833 186.5,288.5C 185.5,288.5 184.5,288.5 183.5,288.5C 181.052,287.527 178.385,287.194 175.5,287.5C 175.5,288.5 175.5,289.5 175.5,290.5C 173.708,290.366 172.042,290.699 170.5,291.5C 165.881,290.172 160.881,289.506 155.5,289.5C 150.119,289.506 145.119,290.172 140.5,291.5C 138.958,290.699 137.292,290.366 135.5,290.5C 135.5,289.5 135.5,288.5 135.5,287.5C 132.941,287.198 130.607,287.532 128.5,288.5C 127.167,288.5 125.833,288.5 124.5,288.5C 123.947,286.448 122.947,286.115 121.5,287.5C 120.5,287.5 119.5,287.5 118.5,287.5C 118.5,286.5 118.5,285.5 118.5,284.5C 116.585,284.216 114.919,284.549 113.5,285.5C 112.833,285.5 112.167,285.5 111.5,285.5C 111.289,283.576 110.623,283.243 109.5,284.5C 108.5,284.5 107.5,284.5 106.5,284.5C 106.5,283.5 106.5,282.5 106.5,281.5C 104.598,279.849 102.598,279.516 100.5,280.5C 99.8333,280.5 99.1667,280.5 98.5,280.5C 98.5,279.5 98.5,278.5 98.5,277.5C 93.5942,276.086 88.9276,274.086 84.5,271.5C 83.4324,270.566 82.099,270.232 80.5,270.5C 80.1667,270.5 79.8333,270.5 79.5,270.5C 79.0581,267.668 77.7248,266.668 75.5,267.5C 75.1667,267.5 74.8333,267.5 74.5,267.5C 74.1667,264.5 72.5,262.833 69.5,262.5C 68.7095,261.599 67.7095,260.932 66.5,260.5C 66.1667,259.833 65.8333,259.167 65.5,258.5C 63.7748,255.802 61.4414,253.802 58.5,252.5C 55.5271,250.194 52.8605,247.527 50.5,244.5C 49.1667,243.167 47.8333,241.833 46.5,240.5C 45.8333,239.167 44.8333,238.167 43.5,237.5C 42.1667,237.5 41.5,236.833 41.5,235.5C 41.385,233.053 40.385,231.053 38.5,229.5C 38.0679,228.29 37.4013,227.29 36.5,226.5C 35.1103,225.101 34.1103,223.434 33.5,221.5C 33.0679,220.29 32.4013,219.29 31.5,218.5C 26.6543,209.629 22.9876,200.296 20.5,190.5C 19.7904,188.254 19.2904,185.92 19,183.5C 18.3292,182.748 17.4959,182.414 16.5,182.5C 16.5,182.167 16.5,181.833 16.5,181.5C 17.1558,180.378 17.4892,179.045 17.5,177.5C 17.4146,175.667 16.7479,174.334 15.5,173.5C 15.5,156.833 15.5,140.167 15.5,123.5C 17.0248,120.762 18.0248,117.762 18.5,114.5C 19.3705,111.997 20.0372,109.33 20.5,106.5C 21.6025,102.899 22.6025,99.2326 23.5,95.5C 26.8476,88.4306 30.1809,81.4306 33.5,74.5C 35.2014,73.7886 36.2014,72.4553 36.5,70.5C 38.2885,68.3205 39.9551,65.9872 41.5,63.5C 43.5,62.8333 44.8333,61.5 45.5,59.5C 46.4602,57.5393 47.7935,55.8726 49.5,54.5C 57.1607,47.1729 64.8274,39.8395 72.5,32.5C 72.5,31.8333 72.8333,31.5 73.5,31.5C 74.7211,32.4646 76.0544,32.298 77.5,31C 79.4386,30.0922 80.4386,28.5922 80.5,26.5C 81.1667,26.1667 81.8333,25.8333 82.5,25.5C 82.369,26.2389 82.5357,26.9056 83,27.5C 87.3251,24.9484 91.8251,22.7818 96.5,21C 97.2524,20.3292 97.5858,19.4959 97.5,18.5C 97.8333,18.5 98.1667,18.5 98.5,18.5C 98.7352,19.0967 99.2352,19.4301 100,19.5C 101.011,18.9444 101.844,18.2778 102.5,17.5C 104.048,17.1788 104.715,16.1788 104.5,14.5C 105.5,14.5 106.5,14.5 107.5,14.5C 108.623,15.7574 109.289,15.4241 109.5,13.5C 110.609,13.4431 111.609,13.1098 112.5,12.5C 112.5,13.8333 113.167,14.5 114.5,14.5C 116.801,13.9396 119.134,13.4396 121.5,13C 122.756,12.5831 123.423,11.7498 123.5,10.5C 124.167,10.1667 124.833,9.83333 125.5,9.5C 125.5,9.83333 125.5,10.1667 125.5,10.5C 127.288,11.6225 129.288,11.7891 131.5,11C 132.252,10.3292 132.586,9.4959 132.5,8.5C 133.609,8.44312 134.609,8.10978 135.5,7.5 Z M 147.5,89.5 C 149.5,89.5 151.5,89.5 153.5,89.5C 154.833,89.5 156.167,89.5 157.5,89.5C 159.5,89.5 161.5,89.5 163.5,89.5C 165.861,89.6741 168.194,90.0074 170.5,90.5C 171.167,90.5 171.833,90.5 172.5,90.5C 174.942,91.9944 177.609,92.9944 180.5,93.5C 181.167,93.5 181.833,93.5 182.5,93.5C 183.533,95.0855 184.866,96.4188 186.5,97.5C 186.833,97.5 187.167,97.5 187.5,97.5C 197.331,105.313 203.331,115.979 205.5,129.5C 205.5,130.167 205.5,130.833 205.5,131.5C 206.026,133.23 207.026,134.564 208.5,135.5C 208.5,136.167 208.5,136.833 208.5,137.5C 208.5,138.833 208.5,140.167 208.5,141.5C 208.5,146.833 208.5,152.167 208.5,157.5C 208.5,158.833 208.5,160.167 208.5,161.5C 206.975,163.216 205.975,165.216 205.5,167.5C 205.5,168.167 205.5,168.833 205.5,169.5C 204.797,173.647 203.797,177.647 202.5,181.5C 201.596,182.209 201.263,183.209 201.5,184.5C 199.554,185.035 198.554,186.368 198.5,188.5C 196.386,190.019 194.72,192.019 193.5,194.5C 192.306,195.272 191.306,196.272 190.5,197.5C 189.29,197.932 188.29,198.599 187.5,199.5C 186.508,199.328 185.842,199.662 185.5,200.5C 184.662,200.842 184.328,201.508 184.5,202.5C 183.508,202.328 182.842,202.662 182.5,203.5C 180.801,203.527 179.467,204.194 178.5,205.5C 178.167,205.5 177.833,205.5 177.5,205.5C 176.167,205.833 174.833,206.167 173.5,206.5C 172.833,206.5 172.167,206.5 171.5,206.5C 169.847,206.66 168.514,207.326 167.5,208.5C 166.167,208.5 164.833,208.5 163.5,208.5C 162.833,208.5 162.167,208.5 161.5,208.5C 158.167,208.5 154.833,208.5 151.5,208.5C 150.5,208.5 149.5,208.5 148.5,208.5C 147.5,208.5 146.5,208.5 145.5,208.5C 143.5,207.833 141.5,207.167 139.5,206.5C 138.5,206.5 137.5,206.5 136.5,206.5C 136.158,205.662 135.492,205.328 134.5,205.5C 133.833,205.5 133.167,205.5 132.5,205.5C 131.232,203.953 129.565,202.953 127.5,202.5C 126.833,202.167 126.167,201.833 125.5,201.5C 125.5,200.167 124.833,199.5 123.5,199.5C 118.109,194.778 113.443,189.444 109.5,183.5C 109.611,182.883 109.944,182.383 110.5,182C 108.498,178.847 107.332,175.347 107,171.5C 106.329,170.748 105.496,170.414 104.5,170.5C 104.5,168.833 104.5,167.167 104.5,165.5C 103.85,163.565 103.517,161.565 103.5,159.5C 103.5,158.5 103.5,157.5 103.5,156.5C 103.5,151.5 103.5,146.5 103.5,141.5C 103.5,140.833 103.5,140.167 103.5,139.5C 103.575,136.794 103.908,134.127 104.5,131.5C 104.5,130.167 104.5,128.833 104.5,127.5C 105.458,127.047 106.292,126.381 107,125.5C 107.844,121.789 108.844,118.123 110,114.5C 112.923,108.415 117.09,103.415 122.5,99.5C 124.401,97.2043 126.734,95.371 129.5,94C 132.751,93.2799 135.751,92.1132 138.5,90.5C 139.5,90.5 140.5,90.5 141.5,90.5C 143.5,90.1667 145.5,89.8333 147.5,89.5 Z"/></g>
<g><path style="opacity:0.278" fill="#949494" d="M 167.5,7.5 C 170.939,7.25293 174.272,7.58627 177.5,8.5C 177.5,8.83333 177.5,9.16667 177.5,9.5C 174.813,9.66409 172.146,9.49742 169.5,9C 168.584,8.72158 167.918,8.22158 167.5,7.5 Z"/></g>
<g><path style="opacity:0.42" fill="#8d8d8d" d="M 135.5,7.5 C 138.167,7.5 140.833,7.5 143.5,7.5C 142.5,8.16667 141.5,8.83333 140.5,9.5C 138.219,9.92271 136.552,9.25605 135.5,7.5 Z"/></g>
<g><path style="opacity:0.882" fill="#333333" d="M 143.5,7.5 C 146.5,7.5 149.5,7.5 152.5,7.5C 152.389,8.11742 152.056,8.61742 151.5,9C 147.848,9.49863 144.182,9.6653 140.5,9.5C 141.5,8.83333 142.5,8.16667 143.5,7.5 Z"/></g>
<g><path style="opacity:0.361" fill="#909090" d="M 130.5,8.5 C 129.448,10.256 127.781,10.9227 125.5,10.5C 125.5,10.1667 125.5,9.83333 125.5,9.5C 127.117,8.962 128.784,8.62867 130.5,8.5 Z"/></g>
<g><path style="opacity:0.882" fill="#292929" d="M 162.5,7.5 C 164.167,7.5 165.833,7.5 167.5,7.5C 167.918,8.22158 168.584,8.72158 169.5,9C 172.146,9.49742 174.813,9.66409 177.5,9.5C 174.696,10.6378 171.696,10.8045 168.5,10C 165.949,9.99775 163.949,9.16441 162.5,7.5 Z"/></g>
<g><path style="opacity:0.443" fill="#636363" d="M 179.5,8.5 C 181.565,8.51715 183.565,8.85048 185.5,9.5C 185.209,10.6491 184.376,11.3158 183,11.5C 180.725,11.7224 179.559,10.7224 179.5,8.5 Z"/></g>
<g><path style="opacity:0.757" fill="#444444" d="M 130.5,8.5 C 131.167,8.5 131.833,8.5 132.5,8.5C 132.586,9.4959 132.252,10.3292 131.5,11C 129.288,11.7891 127.288,11.6225 125.5,10.5C 127.781,10.9227 129.448,10.256 130.5,8.5 Z"/></g>
<g><path style="opacity:0.008" fill="#bebebe" d="M 193.5,11.5 C 193.5,11.8333 193.5,12.1667 193.5,12.5C 192.167,12.5 191.5,11.8333 191.5,10.5C 191.435,10.0618 191.601,9.72845 192,9.5C 192.278,10.4158 192.778,11.0825 193.5,11.5 Z"/></g>
<g><path style="opacity:0.298" fill="#a3a3a3" d="M 121.5,10.5 C 120.779,12.3818 119.779,12.7152 118.5,11.5C 119.391,10.8902 120.391,10.5569 121.5,10.5 Z"/></g>
<g><path style="opacity:0.416" fill="#404040" d="M 121.5,10.5 C 122.167,10.5 122.833,10.5 123.5,10.5C 123.423,11.7498 122.756,12.5831 121.5,13C 119.134,13.4396 116.801,13.9396 114.5,14.5C 114.5,13.8333 114.5,13.1667 114.5,12.5C 115.568,11.5655 116.901,11.2322 118.5,11.5C 119.779,12.7152 120.779,12.3818 121.5,10.5 Z"/></g>
<g><path style="opacity:0.667" fill="#484848" d="M 188.5,10.5 C 189.5,10.5 190.5,10.5 191.5,10.5C 191.5,11.8333 192.167,12.5 193.5,12.5C 192.399,13.5983 191.066,13.765 189.5,13C 188.748,12.3292 188.414,11.4959 188.5,10.5 Z"/></g>
<g><path style="opacity:0.4" fill="#989898" d="M 112.5,12.5 C 113.167,12.5 113.833,12.5 114.5,12.5C 114.5,13.1667 114.5,13.8333 114.5,14.5C 113.167,14.5 112.5,13.8333 112.5,12.5 Z"/></g>
<g><path style="opacity:0.416" fill="#6f6f6f" d="M 195.5,11.5 C 197.153,11.6596 198.486,12.3263 199.5,13.5C 198.432,14.4345 197.099,14.7678 195.5,14.5C 195.5,13.5 195.5,12.5 195.5,11.5 Z"/></g>
<g><path style="opacity:0.039" fill="#adadad" d="M 104.5,14.5 C 104.715,16.1788 104.048,17.1788 102.5,17.5C 102.5,16.8333 102.5,16.1667 102.5,15.5C 103.167,15.1667 103.833,14.8333 104.5,14.5 Z"/></g>
<g><path style="opacity:0.278" fill="#a4a4a4" d="M 109.5,13.5 C 109.289,15.4241 108.623,15.7574 107.5,14.5C 107.842,13.6618 108.508,13.3284 109.5,13.5 Z"/></g>
<g><path style="opacity:0.4" fill="#737373" d="M 201.5,13.5 C 204.218,14.0427 206.885,14.7094 209.5,15.5C 209.53,16.4972 209.03,17.1639 208,17.5C 205.901,16.7135 203.734,16.3801 201.5,16.5C 201.5,15.5 201.5,14.5 201.5,13.5 Z"/></g>
<g><path style="opacity:0.106" fill="#959595" d="M 372.5,11.5 C 372.262,14.0685 370.929,15.7352 368.5,16.5C 368.67,13.796 370.003,12.1293 372.5,11.5 Z"/></g>
<g><path style="opacity:0.094" fill="#8f8f8f" d="M 470.5,13.5 C 469.189,15.3358 468.022,17.3358 467,19.5C 466.329,20.2524 465.496,20.5858 464.5,20.5C 465.103,16.9014 467.103,14.5681 470.5,13.5 Z"/></g>
<g><path style="opacity:0.522" fill="#5b5b5b" d="M 102.5,15.5 C 102.5,16.1667 102.5,16.8333 102.5,17.5C 101.844,18.2778 101.011,18.9444 100,19.5C 99.2352,19.4301 98.7352,19.0967 98.5,18.5C 99.7383,18.19 99.7383,17.69 98.5,17C 99.9007,16.5899 101.234,16.0899 102.5,15.5 Z"/></g>
<g><path style="opacity:0.251" fill="#9b9b9b" d="M 368.5,16.5 C 368.727,18.9328 367.727,20.5994 365.5,21.5C 365.75,19.326 366.75,17.6594 368.5,16.5 Z"/></g>
<g><path style="opacity:0.494" fill="#747474" d="M 211.5,16.5 C 213.547,17.8318 215.547,19.1652 217.5,20.5C 217.265,21.0967 216.765,21.4301 216,21.5C 214.7,20.2927 213.2,19.6261 211.5,19.5C 211.5,18.5 211.5,17.5 211.5,16.5 Z"/></g>
<g><path style="opacity:0.108" fill="#797979" d="M 97.5,18.5 C 97.5858,19.4959 97.2524,20.3292 96.5,21C 91.8251,22.7818 87.3251,24.9484 83,27.5C 82.5357,26.9056 82.369,26.2389 82.5,25.5C 87.1666,22.6034 92.1666,20.2701 97.5,18.5 Z"/></g>
<g><path style="opacity:0.082" fill="#868686" d="M 365.5,21.5 C 365.631,24.3667 364.297,26.0334 361.5,26.5C 362.279,24.323 363.613,22.6563 365.5,21.5 Z"/></g>
<g><path style="opacity:0.21" fill="#686868" d="M 218.5,20.5 C 222.769,22.4861 227.103,24.4861 231.5,26.5C 232.298,26.9569 232.631,27.6236 232.5,28.5C 232.44,29.0431 232.107,29.3764 231.5,29.5C 227.563,26.5425 223.229,24.5425 218.5,23.5C 218.5,22.5 218.5,21.5 218.5,20.5 Z"/></g>
<g><path style="opacity:0.318" fill="#7c7c7c" d="M 80.5,26.5 C 80.4386,28.5922 79.4386,30.0922 77.5,31C 76.0544,32.298 74.7211,32.4646 73.5,31.5C 76.4482,29.6716 78.7815,28.0049 80.5,26.5 Z"/></g>
<g><path style="opacity:0.451" fill="#6c6c6c" d="M 233.5,28.5 C 234.872,29.5116 236.205,30.5116 237.5,31.5C 235.027,32.5701 233.693,31.5701 233.5,28.5 Z"/></g>
<g><path style="opacity:0.016" fill="#8f8f8f" d="M 464.5,20.5 C 462.327,24.8523 459.66,28.8523 456.5,32.5C 456.491,30.6916 456.991,29.0249 458,27.5C 459.577,24.5334 461.744,22.2001 464.5,20.5 Z"/></g>
<g><path style="opacity:0.314" fill="#949494" d="M 361.5,26.5 C 357.195,35.7727 351.861,44.4394 345.5,52.5C 344.833,52.5 344.167,52.5 343.5,52.5C 348.28,45.2132 353.28,38.0466 358.5,31C 358.167,30.6667 357.833,30.3333 357.5,30C 358.949,28.8978 360.282,27.7311 361.5,26.5 Z"/></g>
<g><path style="opacity:0.271" fill="#919191" d="M 238.5,31.5 C 239.872,32.5116 241.205,33.5116 242.5,34.5C 242.5,35.1667 242.167,35.5 241.5,35.5C 239.468,34.9522 238.468,33.6188 238.5,31.5 Z"/></g>
<g><path style="opacity:0.173" fill="#969696" d="M 456.5,32.5 C 455.649,34.8816 454.316,36.8816 452.5,38.5C 452.5,37.5 452.5,36.5 452.5,35.5C 453.262,33.7376 454.596,32.7376 456.5,32.5 Z"/></g>
<g><path style="opacity:0.302" fill="#383838" d="M 242.5,34.5 C 243.778,34.7822 244.778,35.4489 245.5,36.5C 245.5,37.5 245.5,38.5 245.5,39.5C 244.167,38.1667 242.833,36.8333 241.5,35.5C 242.167,35.5 242.5,35.1667 242.5,34.5 Z"/></g>
<g><path style="opacity:0.231" fill="#474747" d="M 452.5,35.5 C 452.5,36.5 452.5,37.5 452.5,38.5C 452.5,39.1667 452.167,39.5 451.5,39.5C 450.833,39.5 450.167,39.5 449.5,39.5C 450.659,38.2597 451.659,36.9264 452.5,35.5 Z"/></g>
<g><path style="opacity:0.373" fill="#6d6d6d" d="M 72.5,32.5 C 64.8274,39.8395 57.1607,47.1729 49.5,54.5C 49.5,53.8333 49.5,53.1667 49.5,52.5C 53.7321,46.5343 59.0654,41.7009 65.5,38C 65.1667,37.6667 64.8333,37.3333 64.5,37C 67.0321,35.2347 69.6987,33.7347 72.5,32.5 Z"/></g>
<g><path style="opacity:0.118" fill="#5c5c5c" d="M 245.5,36.5 C 251.814,41.1679 257.147,46.1679 261.5,51.5C 261.5,52.1667 261.5,52.8333 261.5,53.5C 256.122,48.7819 250.788,44.1152 245.5,39.5C 245.5,38.5 245.5,37.5 245.5,36.5 Z"/></g>
<g><path style="opacity:0.037" fill="#818181" d="M 449.5,39.5 C 450.167,39.5 450.833,39.5 451.5,39.5C 446.238,48.0896 440.238,56.0896 433.5,63.5C 433.167,63.5 432.833,63.5 432.5,63.5C 438.228,55.4555 443.895,47.4555 449.5,39.5 Z"/></g>
<g><path style="opacity:0.027" fill="#9c9c9c" d="M 261.5,51.5 C 264.238,53.5767 266.238,56.2433 267.5,59.5C 267.167,59.5 266.833,59.5 266.5,59.5C 264.863,57.5248 263.196,55.5248 261.5,53.5C 261.5,52.8333 261.5,52.1667 261.5,51.5 Z"/></g>
<g><path style="opacity:0.596" fill="#474747" d="M 343.5,52.5 C 344.167,52.5 344.833,52.5 345.5,52.5C 345.068,53.7095 344.401,54.7095 343.5,55.5C 343.5,54.8333 343.5,54.1667 343.5,53.5C 343.5,53.1667 343.5,52.8333 343.5,52.5 Z"/></g>
<g><path style="opacity:0.063" fill="#ababab" d="M 49.5,52.5 C 49.5,53.1667 49.5,53.8333 49.5,54.5C 47.7935,55.8726 46.4602,57.5393 45.5,59.5C 44.8333,59.5 44.1667,59.5 43.5,59.5C 44.4069,56.8685 46.4069,54.5352 49.5,52.5 Z"/></g>
<g><path style="opacity:0.137" fill="#7b7b7b" d="M 343.5,53.5 C 343.5,54.1667 343.5,54.8333 343.5,55.5C 341.066,59.3817 338.399,63.0484 335.5,66.5C 335.5,65.8333 335.5,65.1667 335.5,64.5C 337.49,60.2007 340.157,56.5341 343.5,53.5 Z"/></g>
<g><path style="opacity:0.792" fill="#363636" d="M 43.5,59.5 C 44.1667,59.5 44.8333,59.5 45.5,59.5C 44.8333,61.5 43.5,62.8333 41.5,63.5C 41.5,62.8333 41.5,62.1667 41.5,61.5C 42.1667,60.8333 42.8333,60.1667 43.5,59.5 Z"/></g>
<g><path style="opacity:0.635" fill="#505050" d="M 266.5,59.5 C 266.833,59.5 267.167,59.5 267.5,59.5C 268.5,59.8333 269.167,60.5 269.5,61.5C 269.5,62.1667 269.5,62.8333 269.5,63.5C 268.026,62.5637 267.026,61.2303 266.5,59.5 Z"/></g>
<g><path style="opacity:0.11" fill="#989898" d="M 269.5,61.5 C 278.545,72.5759 285.545,84.9092 290.5,98.5C 289.5,98.5 288.5,98.5 287.5,98.5C 283.779,85.6795 277.779,74.0129 269.5,63.5C 269.5,62.8333 269.5,62.1667 269.5,61.5 Z"/></g>
<g><path style="opacity:0.24" fill="#656565" d="M 478.5,63.5 C 478.5,78.5 478.5,93.5 478.5,108.5C 477.169,101.364 476.503,93.8644 476.5,86C 476.503,78.1356 477.169,70.6356 478.5,63.5 Z"/></g>
<g><path style="opacity:0.984" fill="#010101" d="M 479.5,63.5 C 526.167,63.5 572.833,63.5 619.5,63.5C 619.5,78.5 619.5,93.5 619.5,108.5C 618.833,108.5 618.167,108.5 617.5,108.5C 610.867,107.17 603.867,106.503 596.5,106.5C 589.325,106.5 582.325,106.834 575.5,107.5C 575.5,150.167 575.5,192.833 575.5,235.5C 558.167,235.5 540.833,235.5 523.5,235.5C 524.161,192.154 523.495,149.154 521.5,106.5C 507.5,106.5 493.5,106.5 479.5,106.5C 479.5,92.1667 479.5,77.8333 479.5,63.5 Z"/></g>
<g><path style="opacity:0.023" fill="#505050" d="M 619.5,63.5 C 620.5,63.5 621.5,63.5 622.5,63.5C 622.667,78.1705 622.5,92.8371 622,107.5C 621.329,108.252 620.496,108.586 619.5,108.5C 619.5,93.5 619.5,78.5 619.5,63.5 Z"/></g>
<g><path style="opacity:0.983" fill="#010101" d="M 685.5,63.5 C 708.43,69.5912 731.097,76.2578 753.5,83.5C 755.506,88.8771 757.506,94.2104 759.5,99.5C 763.675,113.193 768.342,126.693 773.5,140C 775.098,143.626 776.764,147.126 778.5,150.5C 784.098,168.293 790.098,185.959 796.5,203.5C 779.798,206.758 763.464,211.091 747.5,216.5C 746.897,213.692 745.897,211.026 744.5,208.5C 743.893,208.624 743.56,208.957 743.5,209.5C 724.992,209.17 706.659,209.503 688.5,210.5C 687.5,210.5 686.5,210.5 685.5,210.5C 683.293,218.453 681.293,226.453 679.5,234.5C 670.173,235.166 660.673,235.5 651,235.5C 641.142,235.498 631.642,234.832 622.5,233.5C 624.737,230.06 626.904,226.394 629,222.5C 634.783,206.318 640.283,189.985 645.5,173.5C 650.058,163.175 654.058,152.508 657.5,141.5C 658.117,141.389 658.617,141.056 659,140.5C 662.003,129.16 666.003,118.16 671,107.5C 676.336,92.9929 681.169,78.3262 685.5,63.5 Z M 729.5,167.5 C 720.5,167.5 711.5,167.5 702.5,167.5C 707.237,153.254 711.737,138.921 716,124.5C 720.976,138.6 725.476,152.933 729.5,167.5 Z"/></g>
<g><path style="opacity:0.037" fill="#afafaf" d="M 432.5,63.5 C 432.833,63.5 433.167,63.5 433.5,63.5C 434.674,65.3678 434.007,66.3678 431.5,66.5C 431.5,65.8333 431.5,65.1667 431.5,64.5C 432.167,64.5 432.5,64.1667 432.5,63.5 Z"/></g>
<g><path style="opacity:0.08" fill="#939393" d="M 41.5,61.5 C 41.5,62.1667 41.5,62.8333 41.5,63.5C 39.9551,65.9872 38.2885,68.3205 36.5,70.5C 36.928,66.756 38.5947,63.756 41.5,61.5 Z"/></g>
<g><path style="opacity:0.2" fill="#5b5b5b" d="M 431.5,64.5 C 431.5,65.1667 431.5,65.8333 431.5,66.5C 431.5,66.8333 431.5,67.1667 431.5,67.5C 430.833,67.5 430.167,67.5 429.5,67.5C 429.932,66.2905 430.599,65.2905 431.5,64.5 Z"/></g>
<g><path style="opacity:0.192" fill="#a8a8a8" d="M 335.5,64.5 C 335.5,65.1667 335.5,65.8333 335.5,66.5C 335.167,67.5 334.5,68.1667 333.5,68.5C 333.66,66.847 334.326,65.5137 335.5,64.5 Z"/></g>
<g><path style="opacity:0.173" fill="#9b9b9b" d="M 333.5,68.5 C 333.25,70.674 332.25,72.3406 330.5,73.5C 330.389,72.8826 330.056,72.3826 329.5,72C 330.736,70.6125 332.069,69.4458 333.5,68.5 Z"/></g>
<g><path style="opacity:0.033" fill="#a7a7a7" d="M 429.5,67.5 C 430.167,67.5 430.833,67.5 431.5,67.5C 430.154,69.5368 428.82,71.5368 427.5,73.5C 427.5,72.5 427.5,71.5 427.5,70.5C 428.167,69.5 428.833,68.5 429.5,67.5 Z"/></g>
<g><path style="opacity:0.353" fill="#7f7f7f" d="M 36.5,70.5 C 36.2014,72.4553 35.2014,73.7886 33.5,74.5C 32.7077,72.2436 33.7077,70.9103 36.5,70.5 Z"/></g>
<g><path style="opacity:0.412" fill="#4b4b4b" d="M 427.5,70.5 C 427.5,71.5 427.5,72.5 427.5,73.5C 426.833,73.5 426.5,73.8333 426.5,74.5C 425.833,74.5 425.167,74.5 424.5,74.5C 425.026,72.7697 426.026,71.4363 427.5,70.5 Z"/></g>
<g><path style="opacity:0.093" fill="#808080" d="M 424.5,74.5 C 425.167,74.5 425.833,74.5 426.5,74.5C 425.503,77.155 423.836,79.155 421.5,80.5C 421.615,78.0532 422.615,76.0532 424.5,74.5 Z"/></g>
<g><path style="opacity:0.361" fill="#939393" d="M 330.5,73.5 C 327.527,77.9974 324.693,82.6641 322,87.5C 321.184,88.8228 320.017,89.4894 318.5,89.5C 321.934,85.2252 324.767,80.5585 327,75.5C 327.816,74.1772 328.983,73.5106 330.5,73.5 Z"/></g>
<g><path style="opacity:0.308" fill="#7a7a7a" d="M 421.5,80.5 C 419.413,84.3441 417.08,88.0107 414.5,91.5C 414.5,90.5 414.5,89.5 414.5,88.5C 415.848,86.6412 417.015,84.6412 418,82.5C 418.816,81.1772 419.983,80.5106 421.5,80.5 Z"/></g>
<g><path style="opacity:0.106" fill="#3a3a3a" d="M 157.5,89.5 C 156.167,89.5 154.833,89.5 153.5,89.5C 153.5,88.5 153.5,87.5 153.5,86.5C 154.833,86.5 156.167,86.5 157.5,86.5C 157.5,87.5 157.5,88.5 157.5,89.5 Z"/></g>
<g><path style="opacity:0.38" fill="#757575" d="M 170.5,90.5 C 168.194,90.0074 165.861,89.6741 163.5,89.5C 165.279,87.6565 167.612,86.9898 170.5,87.5C 170.5,88.5 170.5,89.5 170.5,90.5 Z"/></g>
<g><path style="opacity:0.035" fill="#939393" d="M 753.5,83.5 C 754.497,83.4701 755.164,83.9701 755.5,85C 757.552,90.9969 759.885,96.8303 762.5,102.5C 761.1,101.9 760.1,100.9 759.5,99.5C 757.506,94.2104 755.506,88.8771 753.5,83.5 Z"/></g>
<g><path style="opacity:0.027" fill="#8f8f8f" d="M 147.5,89.5 C 145.5,89.8333 143.5,90.1667 141.5,90.5C 141.559,88.2776 142.725,87.2776 145,87.5C 146.376,87.6842 147.209,88.3509 147.5,89.5 Z"/></g>
<g><path style="opacity:0.043" fill="#6f6f6f" d="M 172.5,90.5 C 174.726,89.441 177.059,89.6077 179.5,91C 180.252,91.6708 180.586,92.5041 180.5,93.5C 177.609,92.9944 174.942,91.9944 172.5,90.5 Z"/></g>
<g><path style="opacity:0.137" fill="#464646" d="M 414.5,88.5 C 414.5,89.5 414.5,90.5 414.5,91.5C 414.5,92.1667 414.167,92.5 413.5,92.5C 412.833,92.5 412.167,92.5 411.5,92.5C 412.026,90.7697 413.026,89.4363 414.5,88.5 Z"/></g>
<g><path style="opacity:0.059" fill="#6e6e6e" d="M 138.5,90.5 C 135.751,92.1132 132.751,93.2799 129.5,94C 126.734,95.371 124.401,97.2043 122.5,99.5C 122.158,98.6618 121.492,98.3284 120.5,98.5C 123.905,95.7347 127.572,93.2347 131.5,91C 133.941,89.6077 136.274,89.441 138.5,90.5 Z"/></g>
<g><path style="opacity:0.243" fill="#848484" d="M 182.5,93.5 C 185.179,93.5246 186.512,94.858 186.5,97.5C 184.866,96.4188 183.533,95.0855 182.5,93.5 Z"/></g>
<g><path style="opacity:0.382" fill="#7c7c7c" d="M 318.5,89.5 C 318.509,91.3084 318.009,92.9751 317,94.5C 312.267,101.056 307.767,107.723 303.5,114.5C 303.5,113.833 303.5,113.167 303.5,112.5C 308.145,104.538 313.145,96.8709 318.5,89.5 Z"/></g>
<g><path style="opacity:0.099" fill="#979797" d="M 33.5,74.5 C 30.1809,81.4306 26.8476,88.4306 23.5,95.5C 22.6025,99.2326 21.6025,102.899 20.5,106.5C 19.609,107.11 18.609,107.443 17.5,107.5C 19.4241,104.157 20.5908,100.491 21,96.5C 24.8986,89.823 28.2319,82.823 31,75.5C 31.6708,74.7476 32.5041,74.4142 33.5,74.5 Z"/></g>
<g><path style="opacity:0.145" fill="#878787" d="M 411.5,92.5 C 412.167,92.5 412.833,92.5 413.5,92.5C 410.794,97.3856 407.461,101.886 403.5,106C 403.833,106.333 404.167,106.667 404.5,107C 399.926,112.065 395.593,117.231 391.5,122.5C 391.491,120.692 391.991,119.025 393,117.5C 399.416,109.265 405.582,100.932 411.5,92.5 Z"/></g>
<g><path style="opacity:0.041" fill="#999999" d="M 207.5,128.5 C 207.158,129.338 206.492,129.672 205.5,129.5C 203.331,115.979 197.331,105.313 187.5,97.5C 187.897,96.475 188.563,96.3083 189.5,97C 198.758,105.688 204.758,116.188 207.5,128.5 Z"/></g>
<g><path style="opacity:0.151" fill="#a7a7a7" d="M 290.5,99.5 C 291.11,100.391 291.443,101.391 291.5,102.5C 289.448,101.947 289.115,100.947 290.5,99.5 Z"/></g>
<g><path style="opacity:0.258" fill="#6c6c6c" d="M 821.5,102.5 C 821.5,133.5 821.5,164.5 821.5,195.5C 820.85,195.804 820.183,196.137 819.5,196.5C 818.167,164.833 818.167,133.167 819.5,101.5C 820.183,101.863 820.85,102.196 821.5,102.5 Z"/></g>
<g><path style="opacity:0.942" fill="#000000" d="M 821.5,102.5 C 853.071,110.543 884.404,119.21 915.5,128.5C 915.285,130.179 915.952,131.179 917.5,131.5C 917.684,134.337 919.018,136.337 921.5,137.5C 923.312,142.322 925.978,146.655 929.5,150.5C 930.386,149.675 930.719,148.675 930.5,147.5C 930.5,142.5 930.5,137.5 930.5,132.5C 942.321,135.538 953.988,139.038 965.5,143C 971.453,144.491 977.453,145.657 983.5,146.5C 983.5,148.167 983.5,149.833 983.5,151.5C 976.479,152.838 969.479,154.338 962.5,156C 938.77,162.682 915.103,169.515 891.5,176.5C 890.241,172.975 888.241,169.975 885.5,167.5C 884.92,165.251 883.587,163.585 881.5,162.5C 880,158.003 877.667,154.003 874.5,150.5C 874.44,149.957 874.107,149.624 873.5,149.5C 872.501,160.146 872.168,170.813 872.5,181.5C 855.646,186.299 838.646,190.966 821.5,195.5C 821.5,164.5 821.5,133.5 821.5,102.5 Z"/></g>
<g><path style="opacity:0.322" fill="#2b2b2b" d="M 478.5,63.5 C 478.833,63.5 479.167,63.5 479.5,63.5C 479.5,77.8333 479.5,92.1667 479.5,106.5C 493.5,106.5 507.5,106.5 521.5,106.5C 521.5,107.167 521.5,107.833 521.5,108.5C 507.167,108.5 492.833,108.5 478.5,108.5C 478.5,93.5 478.5,78.5 478.5,63.5 Z"/></g>
<g><path style="opacity:0.322" fill="#252525" d="M 575.5,107.5 C 582.325,106.834 589.325,106.5 596.5,106.5C 603.867,106.503 610.867,107.17 617.5,108.5C 604.167,108.5 590.833,108.5 577.5,108.5C 576.833,108.167 576.167,107.833 575.5,107.5 Z"/></g>
<g><path style="opacity:0.535" fill="#484848" d="M 20.5,106.5 C 20.0372,109.33 19.3705,111.997 18.5,114.5C 18.7845,112.585 18.4511,110.919 17.5,109.5C 17.5,108.833 17.5,108.167 17.5,107.5C 18.609,107.443 19.609,107.11 20.5,106.5 Z"/></g>
<g><path style="opacity:0.106" fill="#6e6e6e" d="M 287.5,98.5 C 288.5,98.5 289.5,98.5 290.5,98.5C 290.5,98.8333 290.5,99.1667 290.5,99.5C 289.115,100.947 289.448,101.947 291.5,102.5C 292.577,106.862 293.911,111.195 295.5,115.5C 294.5,115.5 293.5,115.5 292.5,115.5C 291.463,109.649 289.796,103.982 287.5,98.5 Z"/></g>
<g><path style="opacity:0.039" fill="#7d7d7d" d="M 685.5,63.5 C 681.169,78.3262 676.336,92.9929 671,107.5C 666.003,118.16 662.003,129.16 659,140.5C 658.617,141.056 658.117,141.389 657.5,141.5C 658.038,139.883 658.371,138.216 658.5,136.5C 666.97,111.735 675.97,87.402 685.5,63.5 Z"/></g>
<g><path style="opacity:0.121" fill="#535353" d="M 521.5,106.5 C 523.495,149.154 524.161,192.154 523.5,235.5C 521.505,193.513 520.839,151.18 521.5,108.5C 521.5,107.833 521.5,107.167 521.5,106.5 Z"/></g>
<g><path style="opacity:0.051" fill="#787878" d="M 759.5,99.5 C 760.1,100.9 761.1,101.9 762.5,102.5C 768.417,118.327 773.75,134.327 778.5,150.5C 776.764,147.126 775.098,143.626 773.5,140C 768.342,126.693 763.675,113.193 759.5,99.5 Z"/></g>
<g><path style="opacity:0.171" fill="#868686" d="M 575.5,107.5 C 576.167,107.833 576.833,108.167 577.5,108.5C 578.161,151.18 577.495,193.513 575.5,235.5C 575.5,192.833 575.5,150.167 575.5,107.5 Z"/></g>
<g><path style="opacity:0.024" fill="#ababab" d="M 303.5,112.5 C 303.5,113.167 303.5,113.833 303.5,114.5C 302.778,115.551 301.778,116.218 300.5,116.5C 300.799,114.545 301.799,113.211 303.5,112.5 Z"/></g>
<g><path style="opacity:0.106" fill="#949494" d="M 120.5,98.5 C 121.492,98.3284 122.158,98.6618 122.5,99.5C 117.09,103.415 112.923,108.415 110,114.5C 108.844,118.123 107.844,121.789 107,125.5C 106.292,126.381 105.458,127.047 104.5,127.5C 104.5,126.5 104.5,125.5 104.5,124.5C 107.305,114.214 112.638,105.547 120.5,98.5 Z"/></g>
<g><path style="opacity:0.357" fill="#858585" d="M 17.5,109.5 C 18.4511,110.919 18.7845,112.585 18.5,114.5C 18.0248,117.762 17.0248,120.762 15.5,123.5C 15.526,118.733 16.1927,114.066 17.5,109.5 Z"/></g>
<g><path style="opacity:0.224" fill="#878787" d="M 300.5,116.5 C 299.575,119.41 298.241,122.076 296.5,124.5C 295.307,124.03 294.64,123.03 294.5,121.5C 294.52,120.274 294.853,119.274 295.5,118.5C 295.343,119.873 295.51,121.207 296,122.5C 296.814,119.823 298.314,117.823 300.5,116.5 Z"/></g>
<g><path style="opacity:0.78" fill="#3b3b3b" d="M 292.5,115.5 C 293.5,115.5 294.5,115.5 295.5,115.5C 295.5,116.5 295.5,117.5 295.5,118.5C 294.853,119.274 294.52,120.274 294.5,121.5C 294.64,123.03 295.307,124.03 296.5,124.5C 296.189,125.478 295.522,126.145 294.5,126.5C 293.687,122.838 293.021,119.172 292.5,115.5 Z"/></g>
<g><path style="opacity:0.733" fill="#545454" d="M 207.5,128.5 C 208.117,128.611 208.617,128.944 209,129.5C 209.801,132.367 209.634,135.034 208.5,137.5C 208.5,136.833 208.5,136.167 208.5,135.5C 208.5,134.167 208.5,132.833 208.5,131.5C 207.5,131.5 206.5,131.5 205.5,131.5C 205.5,130.833 205.5,130.167 205.5,129.5C 206.492,129.672 207.158,129.338 207.5,128.5 Z"/></g>
<g><path style="opacity:0.157" fill="#777777" d="M 915.5,128.5 C 916.906,128.973 917.573,129.973 917.5,131.5C 915.952,131.179 915.285,130.179 915.5,128.5 Z"/></g>
<g><path style="opacity:0.088" fill="#b4b4b4" d="M 205.5,131.5 C 206.5,131.5 207.5,131.5 208.5,131.5C 208.5,132.833 208.5,134.167 208.5,135.5C 207.026,134.564 206.026,133.23 205.5,131.5 Z"/></g>
<g><path style="opacity:0.464" fill="#515151" d="M 930.5,132.5 C 930.5,137.5 930.5,142.5 930.5,147.5C 929.833,147.167 929.167,146.833 928.5,146.5C 927.897,141.381 928.564,136.715 930.5,132.5 Z"/></g>
<g><path style="opacity:0.043" fill="#828282" d="M 917.5,131.5 C 919.316,133.118 920.649,135.118 921.5,137.5C 919.018,136.337 917.684,134.337 917.5,131.5 Z"/></g>
<g><path style="opacity:0.067" fill="#b7b7b7" d="M 104.5,131.5 C 103.908,134.127 103.575,136.794 103.5,139.5C 103.167,139.5 102.833,139.5 102.5,139.5C 101.964,136.302 102.631,133.635 104.5,131.5 Z"/></g>
<g><path style="opacity:0.042" fill="#818181" d="M 391.5,122.5 C 386.245,130.097 381.245,137.431 376.5,144.5C 377.763,146.029 378.763,147.695 379.5,149.5C 375.985,148.471 374.485,146.138 375,142.5C 379.721,136.779 384.054,130.779 388,124.5C 388.816,123.177 389.983,122.511 391.5,122.5 Z"/></g>
<g><path style="opacity:0.537" fill="#4c4c4c" d="M 104.5,124.5 C 104.5,125.5 104.5,126.5 104.5,127.5C 104.5,128.833 104.5,130.167 104.5,131.5C 102.631,133.635 101.964,136.302 102.5,139.5C 101.362,136.696 101.195,133.696 102,130.5C 103.019,128.498 103.852,126.498 104.5,124.5 Z"/></g>
<g><path style="opacity:0.196" fill="#7e7e7e" d="M 731.5,166.5 C 731.591,168.698 730.925,169.031 729.5,167.5C 725.476,152.933 720.976,138.6 716,124.5C 711.737,138.921 707.237,153.254 702.5,167.5C 702.046,165.741 702.046,163.741 702.5,161.5C 706.597,149.369 710.43,137.035 714,124.5C 714.71,123.027 715.876,122.36 717.5,122.5C 721.97,137.243 726.637,151.91 731.5,166.5 Z M 729.5,167.5 C 720.5,167.5 711.5,167.5 702.5,167.5C 707.237,153.254 711.737,138.921 716,124.5C 720.976,138.6 725.476,152.933 729.5,167.5 Z"/></g>
<g><path style="opacity:0.082" fill="#8b8b8b" d="M 921.5,137.5 C 923.833,140.5 926.167,143.5 928.5,146.5C 929.167,146.833 929.833,147.167 930.5,147.5C 930.719,148.675 930.386,149.675 929.5,150.5C 925.978,146.655 923.312,142.322 921.5,137.5 Z"/></g>
<g><path style="opacity:0.469" fill="#676767" d="M 208.5,141.5 C 209.812,143.743 210.478,146.41 210.5,149.5C 210.478,152.59 209.812,155.257 208.5,157.5C 208.5,152.167 208.5,146.833 208.5,141.5 Z"/></g>
<g><path style="opacity:0.635" fill="#454545" d="M 103.5,141.5 C 103.5,146.5 103.5,151.5 103.5,156.5C 102.5,156.5 101.5,156.5 100.5,156.5C 100.5,151.5 100.5,146.5 100.5,141.5C 101.5,141.5 102.5,141.5 103.5,141.5 Z"/></g>
<g><path style="opacity:0.082" fill="#8a8a8a" d="M 379.5,150.5 C 380.756,150.461 381.756,150.961 382.5,152C 381.402,152.77 381.402,153.603 382.5,154.5C 380.554,153.965 379.554,152.632 379.5,150.5 Z"/></g>
<g><path style="opacity:0.545" fill="#5f5f5f" d="M 874.5,150.5 C 873.861,151.097 873.528,151.93 873.5,153C 873.684,154.376 874.351,155.209 875.5,155.5C 875.5,156.167 875.5,156.833 875.5,157.5C 873.533,165.097 872.866,173.097 873.5,181.5C 873.167,181.5 872.833,181.5 872.5,181.5C 872.168,170.813 872.501,160.146 873.5,149.5C 874.107,149.624 874.44,149.957 874.5,150.5 Z"/></g>
<g><path style="opacity:0.114" fill="#989898" d="M 383.5,155.5 C 385.741,156.3 386.741,157.966 386.5,160.5C 384.273,159.599 383.273,157.933 383.5,155.5 Z"/></g>
<g><path style="opacity:0.325" fill="#8f8f8f" d="M 874.5,150.5 C 877.667,154.003 880,158.003 881.5,162.5C 879.442,160.073 877.609,157.407 876,154.5C 875.601,154.728 875.435,155.062 875.5,155.5C 874.351,155.209 873.684,154.376 873.5,153C 873.528,151.93 873.861,151.097 874.5,150.5 Z"/></g>
<g><path style="opacity:0.012" fill="#7c7c7c" d="M 875.5,157.5 C 875.666,164.841 875.5,172.174 875,179.5C 874.722,180.416 874.222,181.082 873.5,181.5C 872.866,173.097 873.533,165.097 875.5,157.5 Z"/></g>
<g><path style="opacity:0.063" fill="#b1b1b1" d="M 102.5,159.5 C 102.833,159.5 103.167,159.5 103.5,159.5C 103.517,161.565 103.85,163.565 104.5,165.5C 102.692,164.082 102.025,162.082 102.5,159.5 Z"/></g>
<g><path style="opacity:0.133" fill="#919191" d="M 658.5,136.5 C 658.371,138.216 658.038,139.883 657.5,141.5C 654.058,152.508 650.058,163.175 645.5,173.5C 645.167,173.5 644.833,173.5 644.5,173.5C 649.185,161.103 653.852,148.769 658.5,136.5 Z"/></g>
<g><path style="opacity:0.231" fill="#8a8a8a" d="M 386.5,160.5 C 388.614,162.019 390.28,164.019 391.5,166.5C 388.447,165.72 386.78,163.72 386.5,160.5 Z"/></g>
<g><path style="opacity:0.325" fill="#585858" d="M 702.5,161.5 C 702.046,163.741 702.046,165.741 702.5,167.5C 702.158,168.338 701.492,168.672 700.5,168.5C 700.41,165.848 701.076,163.515 702.5,161.5 Z"/></g>
<g><path style="opacity:0.027" fill="#8a8a8a" d="M 881.5,162.5 C 883.587,163.585 884.92,165.251 885.5,167.5C 883.413,166.415 882.08,164.749 881.5,162.5 Z"/></g>
<g><path style="opacity:0.18" fill="#5a5a5a" d="M 102.5,159.5 C 102.025,162.082 102.692,164.082 104.5,165.5C 104.5,167.167 104.5,168.833 104.5,170.5C 104.5,171.5 104.5,172.5 104.5,173.5C 103.876,171.166 103.043,168.833 102,166.5C 101.204,163.961 101.371,161.628 102.5,159.5 Z"/></g>
<g><path style="opacity:0.051" fill="#7e7e7e" d="M 208.5,161.5 C 209.461,163.265 209.795,165.265 209.5,167.5C 208.167,167.5 206.833,167.5 205.5,167.5C 205.975,165.216 206.975,163.216 208.5,161.5 Z"/></g>
<g><path style="opacity:0.427" fill="#1d1d1d" d="M 731.5,166.5 C 732.404,167.209 732.737,168.209 732.5,169.5C 721.654,169.828 710.987,169.494 700.5,168.5C 701.492,168.672 702.158,168.338 702.5,167.5C 711.5,167.5 720.5,167.5 729.5,167.5C 730.925,169.031 731.591,168.698 731.5,166.5 Z"/></g>
<g><path style="opacity:0.196" fill="#757575" d="M 885.5,167.5 C 888.241,169.975 890.241,172.975 891.5,176.5C 888.263,174.37 886.263,171.37 885.5,167.5 Z"/></g>
<g><path style="opacity:0.082" fill="#a6a6a6" d="M 205.5,169.5 C 206.586,169.62 207.253,170.287 207.5,171.5C 206.137,174.072 205.137,176.739 204.5,179.5C 203.833,180.167 203.167,180.833 202.5,181.5C 203.797,177.647 204.797,173.647 205.5,169.5 Z"/></g>
<g><path style="opacity:0.2" fill="#797979" d="M 644.5,173.5 C 644.833,173.5 645.167,173.5 645.5,173.5C 640.283,189.985 634.783,206.318 629,222.5C 626.904,226.394 624.737,230.06 622.5,233.5C 629.647,213.39 636.98,193.39 644.5,173.5 Z"/></g>
<g><path style="opacity:0.612" fill="#383838" d="M 297.5,176.5 C 296.833,176.167 296.167,175.833 295.5,175.5C 295.5,174.833 295.167,174.5 294.5,174.5C 294.948,172.535 295.948,172.202 297.5,173.5C 299.977,174.88 299.977,175.88 297.5,176.5 Z"/></g>
<g><path style="opacity:0.075" fill="#959595" d="M 391.5,166.5 C 396.238,171.642 400.238,177.309 403.5,183.5C 401.983,183.489 400.816,182.823 400,181.5C 396.622,176.736 393.788,171.736 391.5,166.5 Z"/></g>
<g><path style="opacity:0.396" fill="#767676" d="M 15.5,173.5 C 16.7479,174.334 17.4146,175.667 17.5,177.5C 17.4892,179.045 17.1558,180.378 16.5,181.5C 15.612,178.946 15.2786,176.279 15.5,173.5 Z"/></g>
<g><path style="opacity:0.322" fill="#7b7b7b" d="M 778.5,150.5 C 779.644,152.1 780.811,153.767 782,155.5C 786.54,169.993 791.54,184.326 797,198.5C 797.78,200.387 797.613,202.054 796.5,203.5C 790.098,185.959 784.098,168.293 778.5,150.5 Z"/></g>
<g><path style="opacity:0.231" fill="#959595" d="M 104.5,170.5 C 105.496,170.414 106.329,170.748 107,171.5C 107.332,175.347 108.498,178.847 110.5,182C 109.944,182.383 109.611,182.883 109.5,183.5C 106.791,180.749 105.125,177.416 104.5,173.5C 104.5,172.5 104.5,171.5 104.5,170.5 Z"/></g>
<g><path style="opacity:0.151" fill="#797979" d="M 294.5,174.5 C 295.167,174.5 295.5,174.833 295.5,175.5C 295.729,180.005 295.063,184.339 293.5,188.5C 292.549,187.081 292.216,185.415 292.5,183.5C 292.99,180.345 293.656,177.345 294.5,174.5 Z"/></g>
<g><path style="opacity:0.016" fill="#8c8c8c" d="M 301.5,182.5 C 300.094,182.027 299.427,181.027 299.5,179.5C 299.369,178.761 299.536,178.094 300,177.5C 301.269,178.905 301.769,180.571 301.5,182.5 Z"/></g>
<g><path style="opacity:0.282" fill="#565656" d="M 204.5,179.5 C 203.912,182.063 202.912,184.396 201.5,186.5C 201.5,185.833 201.5,185.167 201.5,184.5C 201.263,183.209 201.596,182.209 202.5,181.5C 203.167,180.833 203.833,180.167 204.5,179.5 Z"/></g>
<g><path style="opacity:0.004" fill="#808080" d="M 301.5,182.5 C 304.297,182.967 305.631,184.633 305.5,187.5C 303.793,186.127 302.46,184.461 301.5,182.5 Z"/></g>
<g><path style="opacity:0.573" fill="#525252" d="M 16.5,182.5 C 17.4959,182.414 18.3292,182.748 19,183.5C 19.2904,185.92 19.7904,188.254 20.5,190.5C 19.1667,188.5 17.8333,186.5 16.5,184.5C 16.5,183.833 16.5,183.167 16.5,182.5 Z"/></g>
<g><path style="opacity:0.149" fill="#a8a8a8" d="M 201.5,184.5 C 201.5,185.167 201.5,185.833 201.5,186.5C 200.778,187.551 199.778,188.218 198.5,188.5C 198.554,186.368 199.554,185.035 201.5,184.5 Z"/></g>
<g><path style="opacity:0.027" fill="#a9a9a9" d="M 198.5,188.5 C 198.288,191.712 196.621,193.712 193.5,194.5C 194.72,192.019 196.386,190.019 198.5,188.5 Z"/></g>
<g><path style="opacity:0.635" fill="#424242" d="M 292.5,183.5 C 292.216,185.415 292.549,187.081 293.5,188.5C 293.5,188.833 293.5,189.167 293.5,189.5C 292.391,189.557 291.391,189.89 290.5,190.5C 290.927,187.99 291.593,185.657 292.5,183.5 Z"/></g>
<g><path style="opacity:0.043" fill="#9d9d9d" d="M 109.5,183.5 C 113.443,189.444 118.109,194.778 123.5,199.5C 123.5,200.167 123.167,200.5 122.5,200.5C 116.24,196.248 111.907,190.582 109.5,183.5 Z"/></g>
<g><path style="opacity:0.153" fill="#878787" d="M 305.5,187.5 C 307.417,189.296 309.25,191.296 311,193.5C 311.49,194.793 311.657,196.127 311.5,197.5C 308.498,194.839 306.498,191.505 305.5,187.5 Z"/></g>
<g><path style="opacity:0.037" fill="#8c8c8c" d="M 403.5,183.5 C 411.899,194.253 419.566,205.087 426.5,216C 429.204,217.86 430.871,220.36 431.5,223.5C 430.265,223.279 429.265,222.612 428.5,221.5C 422.925,213.367 417.092,205.367 411,197.5C 407.784,193.144 405.284,188.477 403.5,183.5 Z"/></g>
<g><path style="opacity:0.043" fill="#b5b5b5" d="M 190.5,197.5 C 190.573,199.027 189.906,200.027 188.5,200.5C 187.833,200.5 187.5,200.167 187.5,199.5C 188.29,198.599 189.29,197.932 190.5,197.5 Z"/></g>
<g><path style="opacity:0.392" fill="#5a5a5a" d="M 123.5,199.5 C 124.833,199.5 125.5,200.167 125.5,201.5C 124.221,202.715 123.221,202.382 122.5,200.5C 123.167,200.5 123.5,200.167 123.5,199.5 Z"/></g>
<g><path style="opacity:0.439" fill="#646464" d="M 187.5,199.5 C 187.5,200.167 187.833,200.5 188.5,200.5C 187.26,202.985 186.26,202.985 185.5,200.5C 185.842,199.662 186.508,199.328 187.5,199.5 Z"/></g>
<g><path style="opacity:0.247" fill="#757575" d="M 184.5,202.5 C 184.5,203.167 184.5,203.833 184.5,204.5C 183.508,204.672 182.842,204.338 182.5,203.5C 182.842,202.662 183.508,202.328 184.5,202.5 Z"/></g>
<g><path style="opacity:0.227" fill="#838383" d="M 311.5,197.5 C 313.017,197.511 314.184,198.177 315,199.5C 316.879,201.871 318.045,204.538 318.5,207.5C 315.391,204.722 313.058,201.389 311.5,197.5 Z"/></g>
<g><path style="opacity:0.68" fill="#3d3d3d" d="M 182.5,203.5 C 182.842,204.338 183.508,204.672 184.5,204.5C 182.598,206.151 180.598,206.484 178.5,205.5C 179.467,204.194 180.801,203.527 182.5,203.5 Z"/></g>
<g><path style="opacity:0.396" fill="#575757" d="M 127.5,202.5 C 129.565,202.953 131.232,203.953 132.5,205.5C 132.265,206.097 131.765,206.43 131,206.5C 129.251,205.59 128.084,204.257 127.5,202.5 Z"/></g>
<g><path style="opacity:0.224" fill="#acacac" d="M 134.5,205.5 C 135.492,205.328 136.158,205.662 136.5,206.5C 135.377,207.757 134.711,207.424 134.5,205.5 Z"/></g>
<g><path style="opacity:0.729" fill="#505050" d="M 177.5,205.5 C 177.582,207.252 176.749,208.252 175,208.5C 173.97,208.164 173.47,207.497 173.5,206.5C 174.833,206.167 176.167,205.833 177.5,205.5 Z"/></g>
<g><path style="opacity:0.396" fill="#848484" d="M 139.5,206.5 C 141.5,207.167 143.5,207.833 145.5,208.5C 143.735,209.461 141.735,209.795 139.5,209.5C 139.5,208.5 139.5,207.5 139.5,206.5 Z"/></g>
<g><path style="opacity:0.31" fill="#989898" d="M 171.5,206.5 C 171.5,207.5 171.5,208.5 171.5,209.5C 169.901,209.768 168.568,209.434 167.5,208.5C 168.514,207.326 169.847,206.66 171.5,206.5 Z"/></g>
<g><path style="opacity:0.684" fill="#434343" d="M 148.5,208.5 C 149.5,208.5 150.5,208.5 151.5,208.5C 151.389,209.117 151.056,209.617 150.5,210C 152.333,210.167 154.167,210.333 156,210.5C 158.295,210.453 160.129,209.787 161.5,208.5C 162.167,208.5 162.833,208.5 163.5,208.5C 163.586,209.496 163.252,210.329 162.5,211C 158.167,211.667 153.833,211.667 149.5,211C 148.748,210.329 148.414,209.496 148.5,208.5 Z"/></g>
<g><path style="opacity:0.302" fill="#6e6e6e" d="M 151.5,208.5 C 154.833,208.5 158.167,208.5 161.5,208.5C 160.129,209.787 158.295,210.453 156,210.5C 154.167,210.333 152.333,210.167 150.5,210C 151.056,209.617 151.389,209.117 151.5,208.5 Z"/></g>
<g><path style="opacity:0.188" fill="#787878" d="M 747.5,216.5 C 746.504,216.586 745.671,216.252 745,215.5C 744.685,213.414 744.185,211.414 743.5,209.5C 743.56,208.957 743.893,208.624 744.5,208.5C 745.897,211.026 746.897,213.692 747.5,216.5 Z"/></g>
<g><path style="opacity:0.314" fill="#888888" d="M 318.5,207.5 C 320.017,207.511 321.184,208.177 322,209.5C 323.445,212.09 324.612,214.757 325.5,217.5C 322.395,214.725 320.062,211.392 318.5,207.5 Z"/></g>
<g><path style="opacity:0.204" fill="#6f6f6f" d="M 688.5,210.5 C 685.866,217.693 683.532,225.026 681.5,232.5C 681.253,233.713 680.586,234.38 679.5,234.5C 681.293,226.453 683.293,218.453 685.5,210.5C 686.5,210.5 687.5,210.5 688.5,210.5 Z"/></g>
<g><path style="opacity:0.026" fill="#8d8d8d" d="M 293.5,189.5 C 289.369,204.41 283.035,217.744 274.5,229.5C 274.5,228.5 274.5,227.5 274.5,226.5C 281.578,215.262 286.912,203.262 290.5,190.5C 291.391,189.89 292.391,189.557 293.5,189.5 Z"/></g>
<g><path style="opacity:0.09" fill="#959595" d="M 325.5,217.5 C 327.741,218.3 328.741,219.966 328.5,222.5C 326.953,221.232 325.953,219.565 325.5,217.5 Z"/></g>
<g><path style="opacity:0.647" fill="#484848" d="M 31.5,218.5 C 32.4013,219.29 33.0679,220.29 33.5,221.5C 31.9519,221.179 31.2852,220.179 31.5,218.5 Z"/></g>
<g><path style="opacity:0.057" fill="#9b9b9b" d="M 16.5,184.5 C 17.8333,186.5 19.1667,188.5 20.5,190.5C 22.9876,200.296 26.6543,209.629 31.5,218.5C 31.2852,220.179 31.9519,221.179 33.5,221.5C 34.1103,223.434 35.1103,225.101 36.5,226.5C 36.5,227.167 36.5,227.833 36.5,228.5C 31.4354,223.244 27.9354,216.911 26,209.5C 25.6667,209.833 25.3333,210.167 25,210.5C 21.2403,202.124 18.4069,193.458 16.5,184.5 Z"/></g>
<g><path style="opacity:0.008" fill="#8f8f8f" d="M 328.5,222.5 C 331.553,223.28 333.22,225.28 333.5,228.5C 330.914,227.362 329.247,225.362 328.5,222.5 Z"/></g>
<g><path style="opacity:0.365" fill="#505050" d="M 36.5,226.5 C 37.4013,227.29 38.0679,228.29 38.5,229.5C 37.8333,229.5 37.1667,229.5 36.5,229.5C 36.5,229.167 36.5,228.833 36.5,228.5C 36.5,227.833 36.5,227.167 36.5,226.5 Z"/></g>
<g><path style="opacity:0.263" fill="#4e4e4e" d="M 274.5,226.5 C 274.5,227.5 274.5,228.5 274.5,229.5C 273.833,229.5 273.167,229.5 272.5,229.5C 272.932,228.29 273.599,227.29 274.5,226.5 Z"/></g>
<g><path style="opacity:0.161" fill="#909090" d="M 333.5,228.5 C 334.829,230.059 336.162,231.725 337.5,233.5C 338.246,234.736 338.579,236.07 338.5,237.5C 335.595,235.244 333.928,232.244 333.5,228.5 Z"/></g>
<g><path style="opacity:0.247" fill="#7d7d7d" d="M 36.5,229.5 C 37.1667,229.5 37.8333,229.5 38.5,229.5C 40.385,231.053 41.385,233.053 41.5,235.5C 39.1637,234.155 37.497,232.155 36.5,229.5 Z"/></g>
<g><path style="opacity:0.039" fill="#8d8d8d" d="M 272.5,229.5 C 273.167,229.5 273.833,229.5 274.5,229.5C 274.22,232.72 272.553,234.72 269.5,235.5C 269.615,233.053 270.615,231.053 272.5,229.5 Z"/></g>
<g><path style="opacity:0.118" fill="#878787" d="M 431.5,223.5 C 436.087,227.677 439.42,232.677 441.5,238.5C 436.555,234.559 433.222,229.559 431.5,223.5 Z"/></g>
<g><path style="opacity:0.016" fill="#8d8d8d" d="M 269.5,235.5 C 268.602,238.396 266.935,240.729 264.5,242.5C 264.5,241.833 264.5,241.167 264.5,240.5C 265.882,238.451 267.548,236.785 269.5,235.5 Z"/></g>
<g><path style="opacity:0.076" fill="#888888" d="M 43.5,237.5 C 44.8333,238.167 45.8333,239.167 46.5,240.5C 46.5,241.167 46.5,241.833 46.5,242.5C 44.8656,241.793 43.5323,240.627 42.5,239C 43.056,238.617 43.3893,238.117 43.5,237.5 Z"/></g>
<g><path style="opacity:0.239" fill="#8d8d8d" d="M 338.5,237.5 C 340.017,237.511 341.184,238.177 342,239.5C 343.445,242.09 344.612,244.757 345.5,247.5C 342.391,244.722 340.058,241.389 338.5,237.5 Z"/></g>
<g><path style="opacity:0.035" fill="#424242" d="M 46.5,240.5 C 47.8333,241.833 49.1667,243.167 50.5,244.5C 49.8333,244.5 49.1667,244.5 48.5,244.5C 47.1667,244.5 46.5,243.833 46.5,242.5C 46.5,241.833 46.5,241.167 46.5,240.5 Z"/></g>
<g><path style="opacity:0.053" fill="#363636" d="M 264.5,240.5 C 264.5,241.167 264.5,241.833 264.5,242.5C 264.672,243.492 264.338,244.158 263.5,244.5C 262.833,244.5 262.167,244.5 261.5,244.5C 262.026,242.77 263.026,241.436 264.5,240.5 Z"/></g>
<g><path style="opacity:0.098" fill="#848484" d="M 441.5,238.5 C 443.017,238.511 444.184,239.177 445,240.5C 449.649,248.309 454.482,255.975 459.5,263.5C 457.807,262.525 456.307,261.192 455,259.5C 450.259,252.605 445.759,245.605 441.5,238.5 Z"/></g>
<g><path style="opacity:0.149" fill="#9c9c9c" d="M 261.5,244.5 C 262.167,244.5 262.833,244.5 263.5,244.5C 259.493,248.84 255.16,252.84 250.5,256.5C 250.5,255.833 250.5,255.167 250.5,254.5C 254.397,251.391 258.064,248.057 261.5,244.5 Z"/></g>
<g><path style="opacity:0.037" fill="#a0a0a0" d="M 345.5,247.5 C 347.741,248.3 348.741,249.966 348.5,252.5C 346.953,251.232 345.953,249.565 345.5,247.5 Z"/></g>
<g><path style="opacity:0.051" fill="#a6a6a6" d="M 48.5,244.5 C 49.1667,244.5 49.8333,244.5 50.5,244.5C 52.8605,247.527 55.5271,250.194 58.5,252.5C 59.1098,253.391 59.4431,254.391 59.5,255.5C 55.5271,252.194 51.8604,248.527 48.5,244.5 Z"/></g>
<g><path style="opacity:0.055" fill="#2d2d2d" d="M 58.5,252.5 C 61.4414,253.802 63.7748,255.802 65.5,258.5C 64.8333,258.5 64.1667,258.5 63.5,258.5C 61.7697,257.974 60.4363,256.974 59.5,255.5C 59.4431,254.391 59.1098,253.391 58.5,252.5 Z"/></g>
<g><path style="opacity:0.192" fill="#3a3a3a" d="M 250.5,254.5 C 250.5,255.167 250.5,255.833 250.5,256.5C 249.833,257.833 248.833,258.833 247.5,259.5C 247.5,258.833 247.167,258.5 246.5,258.5C 247.833,257.167 249.167,255.833 250.5,254.5 Z"/></g>
<g><path style="opacity:0.263" fill="#858585" d="M 63.5,258.5 C 64.1667,258.5 64.8333,258.5 65.5,258.5C 65.8333,259.167 66.1667,259.833 66.5,260.5C 64.8212,260.715 63.8212,260.048 63.5,258.5 Z"/></g>
<g><path style="opacity:0.141" fill="#828282" d="M 246.5,258.5 C 247.167,258.5 247.5,258.833 247.5,259.5C 246.399,261.394 245.066,262.061 243.5,261.5C 244.167,260.167 245.167,259.167 246.5,258.5 Z"/></g>
<g><path style="opacity:0.18" fill="#919191" d="M 348.5,252.5 C 350.017,252.511 351.184,253.177 352,254.5C 353.901,258.101 356.068,261.435 358.5,264.5C 358.5,265.5 358.5,266.5 358.5,267.5C 355.164,262.496 351.831,257.496 348.5,252.5 Z"/></g>
<g><path style="opacity:0.067" fill="#a8a8a8" d="M 66.5,260.5 C 67.7095,260.932 68.7095,261.599 69.5,262.5C 69.5,263.167 69.5,263.833 69.5,264.5C 68.3172,263.496 66.9839,262.662 65.5,262C 66.056,261.617 66.3893,261.117 66.5,260.5 Z"/></g>
<g><path style="opacity:0.227" fill="#6e6e6e" d="M 243.5,261.5 C 243.573,263.027 242.906,264.027 241.5,264.5C 241.285,262.821 241.952,261.821 243.5,261.5 Z"/></g>
<g><path style="opacity:0.22" fill="#7e7e7e" d="M 240.5,264.5 C 239.833,265.833 238.833,266.833 237.5,267.5C 237.183,264.466 238.183,263.466 240.5,264.5 Z"/></g>
<g><path style="opacity:0.357" fill="#595959" d="M 69.5,262.5 C 72.5,262.833 74.1667,264.5 74.5,267.5C 72.9991,266.248 71.3325,265.248 69.5,264.5C 69.5,263.833 69.5,263.167 69.5,262.5 Z"/></g>
<g><path style="opacity:0.478" fill="#474747" d="M 358.5,264.5 C 359.401,265.29 360.068,266.29 360.5,267.5C 359.833,267.5 359.167,267.5 358.5,267.5C 358.5,266.5 358.5,265.5 358.5,264.5 Z"/></g>
<g><path style="opacity:0.165" fill="#8f8f8f" d="M 459.5,263.5 C 461.063,264.945 462.396,266.611 463.5,268.5C 460.703,268.033 459.369,266.367 459.5,263.5 Z"/></g>
<g><path style="opacity:0.51" fill="#686868" d="M 79.5,270.5 C 78.3951,269.4 77.0618,268.733 75.5,268.5C 75.5,268.167 75.5,267.833 75.5,267.5C 77.7248,266.668 79.0581,267.668 79.5,270.5 Z"/></g>
<g><path style="opacity:0.345" fill="#696969" d="M 235.5,267.5 C 234.833,268.833 233.833,269.833 232.5,270.5C 232.183,267.466 233.183,266.466 235.5,267.5 Z"/></g>
<g><path style="opacity:0.004" fill="#101110" d="M 75.5,268.5 C 74.8333,269.167 74.8333,269.167 75.5,268.5 Z"/></g>
<g><path style="opacity:0.043" fill="#a0a0a0" d="M 463.5,268.5 C 465.25,269.659 466.25,271.326 466.5,273.5C 464.273,272.599 463.273,270.933 463.5,268.5 Z"/></g>
<g><path style="opacity:0.8" fill="#4d4d4d" d="M 80.5,270.5 C 82.099,270.232 83.4324,270.566 84.5,271.5C 83.209,271.263 82.209,271.596 81.5,272.5C 80.6618,272.158 80.3284,271.492 80.5,270.5 Z"/></g>
<g><path style="opacity:0.176" fill="#6d6d6d" d="M 230.5,270.5 C 230.611,271.117 230.944,271.617 231.5,272C 228.933,273.401 226.267,274.568 223.5,275.5C 223.5,274.5 223.5,273.5 223.5,272.5C 225.799,271.862 227.966,270.862 230,269.5C 230.399,269.728 230.565,270.062 230.5,270.5 Z"/></g>
<g><path style="opacity:0.271" fill="#919191" d="M 358.5,267.5 C 359.167,267.5 359.833,267.5 360.5,267.5C 365.095,274.36 369.428,281.36 373.5,288.5C 371.922,287.934 370.588,286.934 369.5,285.5C 365.809,279.439 362.142,273.439 358.5,267.5 Z"/></g>
<g><path style="opacity:0.349" fill="#6a6a6a" d="M 81.5,272.5 C 82.209,271.596 83.209,271.263 84.5,271.5C 88.9276,274.086 93.5942,276.086 98.5,277.5C 98.5,278.5 98.5,279.5 98.5,280.5C 92.6818,278.09 87.0151,275.423 81.5,272.5 Z"/></g>
<g><path style="opacity:0.016" fill="#939393" d="M 222.5,275.5 C 222.167,276.5 221.5,277.167 220.5,277.5C 220.281,276.325 220.614,275.325 221.5,274.5C 222.107,274.624 222.44,274.957 222.5,275.5 Z"/></g>
<g><path style="opacity:0.031" fill="#909090" d="M 466.5,273.5 C 469.607,276.86 472.607,280.36 475.5,284C 475.272,284.399 474.938,284.565 474.5,284.5C 474.167,284.5 473.833,284.5 473.5,284.5C 470.421,281.35 468.087,277.683 466.5,273.5 Z"/></g>
<g><path style="opacity:0.11" fill="#7f7f7f" d="M 218.5,277.5 C 214.969,279.321 211.969,280.988 209.5,282.5C 209.5,281.5 209.5,280.5 209.5,279.5C 212.126,278.578 214.793,277.578 217.5,276.5C 218.107,276.624 218.44,276.957 218.5,277.5 Z"/></g>
<g><path style="opacity:0.455" fill="#4a4a4a" d="M 106.5,281.5 C 105.167,281.5 104.5,282.167 104.5,283.5C 102.545,283.201 101.211,282.201 100.5,280.5C 102.598,279.516 104.598,279.849 106.5,281.5 Z"/></g>
<g><path style="opacity:0.055" fill="#a7a7a7" d="M 106.5,281.5 C 106.5,282.5 106.5,283.5 106.5,284.5C 105.833,284.167 105.167,283.833 104.5,283.5C 104.5,282.167 105.167,281.5 106.5,281.5 Z"/></g>
<g><path style="opacity:0.588" fill="#6f6f6f" d="M 202.5,284.5 C 201.609,285.11 200.609,285.443 199.5,285.5C 199.5,284.5 199.5,283.5 199.5,282.5C 201.179,282.285 202.179,282.952 202.5,284.5 Z"/></g>
<g><path style="opacity:0.047" fill="#9e9e9e" d="M 207.5,282.5 C 206.71,283.401 205.71,284.068 204.5,284.5C 204.5,283.5 204.5,282.5 204.5,281.5C 205.791,281.263 206.791,281.596 207.5,282.5 Z"/></g>
<g><path style="opacity:0.012" fill="#b3b3b3" d="M 111.5,285.5 C 110.508,285.672 109.842,285.338 109.5,284.5C 110.623,283.243 111.289,283.576 111.5,285.5 Z"/></g>
<g><path style="opacity:0.347" fill="#252525" d="M 194.5,284.5 C 194.5,285.5 194.5,286.5 194.5,287.5C 192.833,287.5 191.167,287.5 189.5,287.5C 188.791,286.596 187.791,286.263 186.5,286.5C 188.961,285.469 191.627,284.802 194.5,284.5 Z"/></g>
<g><path style="opacity:0.012" fill="#8d8d8d" d="M 194.5,284.5 C 195.791,284.263 196.791,284.596 197.5,285.5C 196.71,286.401 195.71,287.068 194.5,287.5C 194.5,286.5 194.5,285.5 194.5,284.5 Z"/></g>
<g><path style="opacity:0.027" fill="#777777" d="M 118.5,287.5 C 116.597,287.204 114.93,286.537 113.5,285.5C 114.919,284.549 116.585,284.216 118.5,284.5C 118.5,285.5 118.5,286.5 118.5,287.5 Z"/></g>
<g><path style="opacity:0.114" fill="#8f8f8f" d="M 121.5,287.5 C 122.947,286.115 123.947,286.448 124.5,288.5C 123.391,288.443 122.391,288.11 121.5,287.5 Z"/></g>
<g><path style="opacity:0.137" fill="#959595" d="M 186.5,286.5 C 187.791,286.263 188.791,286.596 189.5,287.5C 188.791,288.404 187.791,288.737 186.5,288.5C 186.5,287.833 186.5,287.167 186.5,286.5 Z"/></g>
<g><path style="opacity:0.4" fill="#333333" d="M 473.5,284.5 C 473.833,284.5 474.167,284.5 474.5,284.5C 475.806,285.467 476.473,286.801 476.5,288.5C 475.5,288.5 474.5,288.5 473.5,288.5C 473.5,287.167 473.5,285.833 473.5,284.5 Z"/></g>
<g><path style="opacity:0.016" fill="#a6a6a6" d="M 129.5,289.5 C 129.917,288.876 130.584,288.543 131.5,288.5C 132.713,288.747 133.38,289.414 133.5,290.5C 132.167,290.167 130.833,289.833 129.5,289.5 Z"/></g>
<g><path style="opacity:0.133" fill="#515151" d="M 135.5,290.5 C 134.833,290.5 134.167,290.5 133.5,290.5C 133.38,289.414 132.713,288.747 131.5,288.5C 130.584,288.543 129.917,288.876 129.5,289.5C 128.833,289.5 128.5,289.167 128.5,288.5C 130.607,287.532 132.941,287.198 135.5,287.5C 135.5,288.5 135.5,289.5 135.5,290.5 Z"/></g>
<g><path style="opacity:0.153" fill="#525252" d="M 183.5,288.5 C 181.219,288.077 179.552,288.744 178.5,290.5C 177.5,290.5 176.5,290.5 175.5,290.5C 175.5,289.5 175.5,288.5 175.5,287.5C 178.385,287.194 181.052,287.527 183.5,288.5 Z"/></g>
<g><path style="opacity:0.035" fill="#acacac" d="M 183.5,288.5 C 181.972,289.309 180.306,289.976 178.5,290.5C 179.552,288.744 181.219,288.077 183.5,288.5 Z"/></g>
<g><path style="opacity:0.375" fill="#8b8b8b" d="M 170.5,291.5 C 160.5,291.5 150.5,291.5 140.5,291.5C 145.119,290.172 150.119,289.506 155.5,289.5C 160.881,289.506 165.881,290.172 170.5,291.5 Z"/></g>
</svg>
